<svg width="40" height="40" viewBox="0 0 40 40" fill="none" xmlns="http://www.w3.org/2000/svg">
<circle cx="20" cy="20" r="19.5" transform="matrix(-1 0 0 1 40 0)" fill="white" stroke="#54B226"/>
<path d="M15.2628 11.5525L22.9474 19.3605C23.1159 19.5308 23.2104 19.7608 23.2104 20.0004C23.2104 20.2401 23.1159 20.47 22.9474 20.6404L15.2645 28.4484C15.0961 28.6198 15.0017 28.8505 15.0017 29.0908C15.0017 29.3312 15.0961 29.5619 15.2645 29.7333C15.3468 29.8177 15.4451 29.8848 15.5538 29.9306C15.6624 29.9764 15.7791 30 15.897 30C16.0149 30 16.1315 29.9764 16.2402 29.9306C16.3488 29.8848 16.4471 29.8177 16.5294 29.7333L24.2123 21.927C24.7172 21.4128 25 20.721 25 20.0004C25 19.2798 24.7172 18.588 24.2123 18.0739L16.5294 10.2676C16.4471 10.1829 16.3487 10.1156 16.2399 10.0696C16.1311 10.0237 16.0142 10 15.8961 10C15.778 10 15.6612 10.0237 15.5524 10.0696C15.4436 10.1156 15.3452 10.1829 15.2628 10.2676C15.0944 10.439 15 10.6697 15 10.91C15 11.1504 15.0944 11.3811 15.2628 11.5525Z" fill="#54B226"/>
</svg>
