<?xml version="1.0" encoding="utf-8"?>
<!-- Generator: Adobe Illustrator 24.0.0, SVG Export Plug-In . SVG Version: 6.00 Build 0)  -->
<svg version="1.1" id="Layer_1" xmlns="http://www.w3.org/2000/svg" xmlns:xlink="http://www.w3.org/1999/xlink" x="0px" y="0px"
	 viewBox="0 0 1080 1080" style="enable-background:new 0 0 1080 1080;" xml:space="preserve">
<style type="text/css">
	.st0{fill:url(#SVGID_1_);}
	.st1{fill:none;stroke:url(#SVGID_2_);stroke-miterlimit:10;}
	.st2{fill:none;stroke:url(#SVGID_3_);stroke-miterlimit:10;}
	.st3{fill:url(#SVGID_4_);}
	.st4{fill:none;stroke:url(#SVGID_5_);stroke-miterlimit:10;}
	.st5{fill:url(#SVGID_6_);}
	.st6{fill:url(#SVGID_7_);}
	.st7{fill:url(#SVGID_8_);}
	.st8{fill:url(#SVGID_9_);}
	.st9{fill:url(#SVGID_10_);}
	.st10{fill:url(#SVGID_11_);}
	.st11{fill:url(#SVGID_12_);}
	.st12{fill:url(#SVGID_13_);}
	.st13{fill:url(#SVGID_14_);}
	.st14{fill:url(#SVGID_15_);}
	.st15{fill:url(#SVGID_16_);}
	.st16{fill:url(#SVGID_17_);}
	.st17{fill:url(#SVGID_18_);}
	.st18{fill:url(#SVGID_19_);}
	.st19{fill:url(#SVGID_20_);}
	.st20{fill:url(#SVGID_21_);}
	.st21{fill:url(#SVGID_22_);}
	.st22{fill:url(#SVGID_23_);}
	.st23{fill:url(#SVGID_24_);}
	.st24{fill:url(#SVGID_25_);}
	.st25{fill:url(#SVGID_26_);}
	.st26{fill:url(#SVGID_27_);}
	.st27{fill:url(#SVGID_28_);}
	.st28{fill:url(#SVGID_29_);}
	.st29{fill:url(#SVGID_30_);}
	.st30{fill:url(#SVGID_31_);}
	.st31{fill:url(#SVGID_32_);}
	.st32{fill:none;stroke:url(#SVGID_33_);stroke-miterlimit:10;}
	.st33{fill:none;stroke:url(#SVGID_34_);stroke-miterlimit:10;}
	.st34{fill:none;stroke:url(#SVGID_35_);stroke-miterlimit:10;}
	.st35{fill:none;stroke:url(#SVGID_36_);stroke-miterlimit:10;}
	.st36{fill:none;stroke:url(#SVGID_37_);stroke-miterlimit:10;}
	.st37{fill:none;stroke:url(#SVGID_38_);stroke-miterlimit:10;}
	.st38{fill:none;stroke:url(#SVGID_39_);stroke-miterlimit:10;}
	.st39{fill:none;stroke:url(#SVGID_40_);stroke-miterlimit:10;}
	.st40{fill:none;stroke:url(#SVGID_41_);stroke-miterlimit:10;}
	.st41{fill:none;stroke:url(#SVGID_42_);stroke-miterlimit:10;}
	.st42{fill:none;stroke:url(#SVGID_43_);stroke-miterlimit:10;}
	.st43{fill:none;stroke:url(#SVGID_44_);stroke-miterlimit:10;}
	.st44{fill:none;stroke:url(#SVGID_45_);stroke-miterlimit:10;}
	.st45{fill:none;stroke:url(#SVGID_46_);stroke-miterlimit:10;}
	.st46{fill:none;stroke:url(#SVGID_47_);stroke-miterlimit:10;}
	.st47{fill:none;stroke:url(#SVGID_48_);stroke-miterlimit:10;}
	.st48{fill:none;stroke:url(#SVGID_49_);stroke-miterlimit:10;}
	.st49{fill:none;stroke:url(#SVGID_50_);stroke-miterlimit:10;}
	.st50{fill:none;stroke:url(#SVGID_51_);stroke-miterlimit:10;}
	.st51{fill:none;stroke:url(#SVGID_52_);stroke-miterlimit:10;}
	.st52{fill:none;stroke:url(#SVGID_53_);stroke-miterlimit:10;}
	.st53{fill:none;stroke:url(#SVGID_54_);stroke-miterlimit:10;}
	.st54{fill:none;stroke:url(#SVGID_55_);stroke-miterlimit:10;}
	.st55{fill:none;stroke:url(#SVGID_56_);stroke-miterlimit:10;}
	.st56{fill:none;stroke:url(#SVGID_57_);stroke-miterlimit:10;}
	.st57{fill:none;stroke:url(#SVGID_58_);stroke-miterlimit:10;}
	.st58{fill:none;stroke:url(#SVGID_59_);stroke-miterlimit:10;}
	.st59{fill:none;stroke:url(#SVGID_60_);stroke-miterlimit:10;}
	.st60{fill:none;stroke:url(#SVGID_61_);stroke-miterlimit:10;}
	.st61{fill:none;stroke:url(#SVGID_62_);stroke-miterlimit:10;}
	.st62{fill:none;stroke:url(#SVGID_63_);stroke-miterlimit:10;}
	.st63{fill:none;stroke:url(#SVGID_64_);stroke-miterlimit:10;}
</style>
<g>
	<linearGradient id="SVGID_1_" gradientUnits="userSpaceOnUse" x1="157.5" y1="540" x2="922.5" y2="540">
		<stop  offset="2.024560e-07" style="stop-color:#262A2B"/>
		<stop  offset="0.286" style="stop-color:#222325"/>
		<stop  offset="0.5809" style="stop-color:#1A1B1C"/>
		<stop  offset="1" style="stop-color:#080808"/>
	</linearGradient>
	<circle class="st0" cx="540" cy="540" r="382.5"/>
	<g>
		<linearGradient id="SVGID_2_" gradientUnits="userSpaceOnUse" x1="360.5158" y1="445.75" x2="663.5158" y2="445.75">
			<stop  offset="0" style="stop-color:#D2878F"/>
			<stop  offset="0.286" style="stop-color:#EED7D7"/>
			<stop  offset="0.4232" style="stop-color:#E9CECF"/>
			<stop  offset="0.6433" style="stop-color:#DBB7BA"/>
			<stop  offset="0.9175" style="stop-color:#C49197"/>
			<stop  offset="1" style="stop-color:#BC848B"/>
		</linearGradient>
		<polyline class="st1" points="663,402.5 663,389.5 361,389.5 361,502.5 		"/>
		<linearGradient id="SVGID_3_" gradientUnits="userSpaceOnUse" x1="360.5158" y1="634.25" x2="663.5158" y2="634.25">
			<stop  offset="0" style="stop-color:#D2878F"/>
			<stop  offset="0.286" style="stop-color:#EED7D7"/>
			<stop  offset="0.4232" style="stop-color:#E9CECF"/>
			<stop  offset="0.6433" style="stop-color:#DBB7BA"/>
			<stop  offset="0.9175" style="stop-color:#C49197"/>
			<stop  offset="1" style="stop-color:#BC848B"/>
		</linearGradient>
		<polyline class="st2" points="663,677.5 663,690.5 361,690.5 361,577.5 		"/>
		<linearGradient id="SVGID_4_" gradientUnits="userSpaceOnUse" x1="354.0158" y1="540.5" x2="366.0158" y2="540.5">
			<stop  offset="0" style="stop-color:#D2878F"/>
			<stop  offset="0.286" style="stop-color:#EED7D7"/>
			<stop  offset="0.4232" style="stop-color:#E9CECF"/>
			<stop  offset="0.6433" style="stop-color:#DBB7BA"/>
			<stop  offset="0.9175" style="stop-color:#C49197"/>
			<stop  offset="1" style="stop-color:#BC848B"/>
		</linearGradient>
		<circle class="st3" cx="360" cy="540.5" r="6"/>
		<linearGradient id="SVGID_5_" gradientUnits="userSpaceOnUse" x1="343.0158" y1="540" x2="679.0158" y2="540">
			<stop  offset="0" style="stop-color:#D2878F"/>
			<stop  offset="0.286" style="stop-color:#EED7D7"/>
			<stop  offset="0.4232" style="stop-color:#E9CECF"/>
			<stop  offset="0.6433" style="stop-color:#DBB7BA"/>
			<stop  offset="0.9175" style="stop-color:#C49197"/>
			<stop  offset="1" style="stop-color:#BC848B"/>
		</linearGradient>
		<polyline class="st4" points="678.5,393 678.5,373 343.5,373 343.5,707 678.5,707 678.5,687 		"/>
		<g>
			<g>
				<linearGradient id="SVGID_6_" gradientUnits="userSpaceOnUse" x1="422.0752" y1="497.677" x2="556.0625" y2="497.677">
					<stop  offset="0" style="stop-color:#D2878F"/>
					<stop  offset="0.286" style="stop-color:#EED7D7"/>
					<stop  offset="0.4232" style="stop-color:#E9CECF"/>
					<stop  offset="0.6433" style="stop-color:#DBB7BA"/>
					<stop  offset="0.9175" style="stop-color:#C49197"/>
					<stop  offset="1" style="stop-color:#BC848B"/>
				</linearGradient>
				<path class="st5" d="M447.1,518.4l-16.3-35.6V511c0,2.6,0.3,4.2,0.8,4.9c0.8,0.9,2,1.3,3.6,1.3h1.5v1.2h-14.7v-1.2h1.5
					c1.8,0,3.1-0.5,3.8-1.6c0.5-0.7,0.7-2.2,0.7-4.5v-27.6c0-1.9-0.2-3.2-0.6-4.1c-0.3-0.6-0.8-1.1-1.6-1.5c-0.8-0.4-2-0.6-3.8-0.6
					v-1.2h12l15.3,33.1l15.1-33.1h12v1.2H475c-1.8,0-3.1,0.5-3.8,1.6c-0.5,0.7-0.7,2.2-0.7,4.5V511c0,2.6,0.3,4.2,0.9,4.9
					c0.8,0.9,2,1.3,3.6,1.3h1.5v1.2h-17.9v-1.2h1.5c1.8,0,3.1-0.5,3.8-1.6c0.5-0.7,0.7-2.2,0.7-4.5v-28.2l-16.3,35.6H447.1z"/>
				<linearGradient id="SVGID_7_" gradientUnits="userSpaceOnUse" x1="422.0752" y1="497.677" x2="556.0625" y2="497.677">
					<stop  offset="0" style="stop-color:#D2878F"/>
					<stop  offset="0.286" style="stop-color:#EED7D7"/>
					<stop  offset="0.4232" style="stop-color:#E9CECF"/>
					<stop  offset="0.6433" style="stop-color:#DBB7BA"/>
					<stop  offset="0.9175" style="stop-color:#C49197"/>
					<stop  offset="1" style="stop-color:#BC848B"/>
				</linearGradient>
				<path class="st6" d="M484.6,500.6c0,4.2,1,7.6,3.1,10c2.1,2.4,4.5,3.6,7.3,3.6c1.9,0,3.5-0.5,4.9-1.5s2.5-2.8,3.5-5.3l1,0.6
					c-0.4,2.8-1.7,5.4-3.8,7.8c-2.1,2.3-4.7,3.5-7.9,3.5c-3.4,0-6.4-1.3-8.8-4s-3.7-6.3-3.7-10.8c0-4.9,1.3-8.7,3.8-11.4
					c2.5-2.7,5.6-4.1,9.4-4.1c3.2,0,5.8,1.1,7.9,3.2c2.1,2.1,3.1,4.9,3.1,8.5H484.6z M484.6,498.8h13.2c-0.1-1.8-0.3-3.1-0.7-3.9
					c-0.5-1.2-1.3-2.1-2.3-2.7c-1-0.7-2.1-1-3.2-1c-1.7,0-3.3,0.7-4.6,2C485.6,494.5,484.8,496.4,484.6,498.8z"/>
				<linearGradient id="SVGID_8_" gradientUnits="userSpaceOnUse" x1="422.0752" y1="497.677" x2="556.0625" y2="497.677">
					<stop  offset="0" style="stop-color:#D2878F"/>
					<stop  offset="0.286" style="stop-color:#EED7D7"/>
					<stop  offset="0.4232" style="stop-color:#E9CECF"/>
					<stop  offset="0.6433" style="stop-color:#DBB7BA"/>
					<stop  offset="0.9175" style="stop-color:#C49197"/>
					<stop  offset="1" style="stop-color:#BC848B"/>
				</linearGradient>
				<path class="st7" d="M512.9,500.6c0,4.2,1,7.6,3.1,10c2.1,2.4,4.5,3.6,7.3,3.6c1.9,0,3.5-0.5,4.9-1.5s2.5-2.8,3.5-5.3l1,0.6
					c-0.4,2.8-1.7,5.4-3.8,7.8c-2.1,2.3-4.7,3.5-7.9,3.5c-3.4,0-6.4-1.3-8.8-4s-3.7-6.3-3.7-10.8c0-4.9,1.3-8.7,3.8-11.4
					c2.5-2.7,5.6-4.1,9.4-4.1c3.2,0,5.8,1.1,7.9,3.2c2.1,2.1,3.1,4.9,3.1,8.5H512.9z M512.9,498.8h13.2c-0.1-1.8-0.3-3.1-0.7-3.9
					c-0.5-1.2-1.3-2.1-2.3-2.7c-1-0.7-2.1-1-3.2-1c-1.7,0-3.3,0.7-4.6,2C513.9,494.5,513.1,496.4,512.9,498.8z"/>
				<linearGradient id="SVGID_9_" gradientUnits="userSpaceOnUse" x1="422.0752" y1="497.677" x2="556.0625" y2="497.677">
					<stop  offset="0" style="stop-color:#D2878F"/>
					<stop  offset="0.286" style="stop-color:#EED7D7"/>
					<stop  offset="0.4232" style="stop-color:#E9CECF"/>
					<stop  offset="0.6433" style="stop-color:#DBB7BA"/>
					<stop  offset="0.9175" style="stop-color:#C49197"/>
					<stop  offset="1" style="stop-color:#BC848B"/>
				</linearGradient>
				<path class="st8" d="M544.8,489v6.4c2.4-4.3,4.8-6.4,7.4-6.4c1.1,0,2.1,0.3,2.8,1c0.7,0.7,1.1,1.5,1.1,2.4
					c0,0.8-0.3,1.5-0.8,2.1c-0.5,0.6-1.2,0.8-1.9,0.8c-0.7,0-1.5-0.4-2.4-1.1c-0.9-0.7-1.6-1.1-2-1.1c-0.4,0-0.8,0.2-1.2,0.6
					c-0.9,0.9-1.9,2.3-2.9,4.2v13.7c0,1.6,0.2,2.8,0.6,3.6c0.3,0.6,0.7,1,1.4,1.4s1.7,0.6,3,0.6v1.1h-14.6v-1.1
					c1.5,0,2.5-0.2,3.2-0.7c0.5-0.3,0.9-0.9,1.1-1.6c0.1-0.4,0.2-1.4,0.2-3v-11.1c0-3.3-0.1-5.3-0.2-5.9s-0.4-1.1-0.7-1.4
					c-0.4-0.3-0.8-0.4-1.4-0.4c-0.6,0-1.4,0.2-2.2,0.5l-0.3-1.1l8.6-3.5H544.8z"/>
			</g>
		</g>
		<g>
			<g>
				<linearGradient id="SVGID_10_" gradientUnits="userSpaceOnUse" x1="423.3213" y1="567.6953" x2="605.0771" y2="567.6953">
					<stop  offset="0" style="stop-color:#D2878F"/>
					<stop  offset="0.286" style="stop-color:#EED7D7"/>
					<stop  offset="0.4232" style="stop-color:#E9CECF"/>
					<stop  offset="0.6433" style="stop-color:#DBB7BA"/>
					<stop  offset="0.9175" style="stop-color:#C49197"/>
					<stop  offset="1" style="stop-color:#BC848B"/>
				</linearGradient>
				<path class="st9" d="M459.4,546.1l1,14.4h-1c-1.3-4.3-3.1-7.4-5.5-9.3c-2.4-1.9-5.3-2.8-8.6-2.8c-2.8,0-5.3,0.7-7.6,2.1
					s-4,3.7-5.3,6.8c-1.3,3.1-1.9,7-1.9,11.6c0,3.8,0.6,7.1,1.8,9.9s3.1,5,5.5,6.5c2.5,1.5,5.3,2.2,8.4,2.2c2.7,0,5.2-0.6,7.3-1.8
					c2.1-1.2,4.4-3.5,6.9-7l1,0.6c-2.1,3.8-4.6,6.5-7.4,8.3c-2.8,1.7-6.2,2.6-10.1,2.6c-7,0-12.4-2.6-16.3-7.8
					c-2.9-3.9-4.3-8.4-4.3-13.6c0-4.2,0.9-8.1,2.8-11.6c1.9-3.5,4.5-6.3,7.8-8.2s6.9-2.9,10.9-2.9c3.1,0,6.1,0.7,9,2.2
					c0.9,0.5,1.5,0.7,1.9,0.7c0.6,0,1-0.2,1.5-0.6c0.5-0.6,0.9-1.3,1.2-2.3H459.4z"/>
				<linearGradient id="SVGID_11_" gradientUnits="userSpaceOnUse" x1="423.3213" y1="567.6953" x2="605.0771" y2="567.6953">
					<stop  offset="0" style="stop-color:#D2878F"/>
					<stop  offset="0.286" style="stop-color:#EED7D7"/>
					<stop  offset="0.4232" style="stop-color:#E9CECF"/>
					<stop  offset="0.6433" style="stop-color:#DBB7BA"/>
					<stop  offset="0.9175" style="stop-color:#C49197"/>
					<stop  offset="1" style="stop-color:#BC848B"/>
				</linearGradient>
				<path class="st10" d="M474,545.1v20.9c2.3-2.5,4.1-4.2,5.5-4.9c1.4-0.7,2.7-1.1,4.1-1.1c1.6,0,3,0.4,4.2,1.3
					c1.2,0.9,2,2.3,2.6,4.2c0.4,1.3,0.6,3.8,0.6,7.3v10.1c0,1.8,0.1,3,0.4,3.7c0.2,0.5,0.6,0.9,1.1,1.2c0.5,0.3,1.4,0.4,2.7,0.4v1.1
					h-14v-1.1h0.7c1.3,0,2.3-0.2,2.8-0.6c0.5-0.4,0.9-1,1.1-1.8c0.1-0.3,0.1-1.3,0.1-2.9v-10.1c0-3.1-0.2-5.2-0.5-6.1
					c-0.3-1-0.8-1.7-1.5-2.2c-0.7-0.5-1.6-0.7-2.6-0.7c-1,0-2.1,0.3-3.2,0.8c-1.1,0.5-2.4,1.6-4,3.3v15.1c0,2,0.1,3.2,0.3,3.6
					c0.2,0.5,0.6,0.9,1.2,1.2c0.6,0.3,1.6,0.5,3.1,0.5v1.1h-14.1v-1.1c1.3,0,2.3-0.2,3-0.6c0.4-0.2,0.7-0.6,1-1.2
					c0.2-0.6,0.4-1.8,0.4-3.6v-25.8c0-3.3-0.1-5.3-0.2-6c-0.2-0.7-0.4-1.3-0.7-1.5c-0.3-0.3-0.8-0.4-1.3-0.4c-0.4,0-1.1,0.2-2.1,0.5
					l-0.4-1.1l8.5-3.5H474z"/>
				<linearGradient id="SVGID_12_" gradientUnits="userSpaceOnUse" x1="423.3213" y1="567.6953" x2="605.0771" y2="567.6953">
					<stop  offset="0" style="stop-color:#D2878F"/>
					<stop  offset="0.286" style="stop-color:#EED7D7"/>
					<stop  offset="0.4232" style="stop-color:#E9CECF"/>
					<stop  offset="0.6433" style="stop-color:#DBB7BA"/>
					<stop  offset="0.9175" style="stop-color:#C49197"/>
					<stop  offset="1" style="stop-color:#BC848B"/>
				</linearGradient>
				<path class="st11" d="M507.3,560v22.9c0,1.8,0.1,3,0.4,3.6c0.3,0.6,0.6,1,1.2,1.3c0.5,0.3,1.4,0.4,2.8,0.4v1.1h-13.9v-1.1
					c1.4,0,2.3-0.1,2.8-0.4c0.5-0.3,0.9-0.7,1.1-1.3s0.4-1.8,0.4-3.6v-11c0-3.1-0.1-5.1-0.3-6c-0.1-0.7-0.4-1.1-0.7-1.4
					s-0.7-0.4-1.3-0.4c-0.6,0-1.3,0.2-2.1,0.5l-0.4-1.1l8.6-3.5H507.3z M504.7,545.1c0.9,0,1.6,0.3,2.2,0.9c0.6,0.6,0.9,1.4,0.9,2.2
					c0,0.9-0.3,1.6-0.9,2.2c-0.6,0.6-1.4,0.9-2.2,0.9s-1.6-0.3-2.2-0.9c-0.6-0.6-0.9-1.4-0.9-2.2c0-0.9,0.3-1.6,0.9-2.2
					C503.1,545.4,503.8,545.1,504.7,545.1z"/>
				<linearGradient id="SVGID_13_" gradientUnits="userSpaceOnUse" x1="423.3213" y1="567.6953" x2="605.0771" y2="567.6953">
					<stop  offset="0" style="stop-color:#D2878F"/>
					<stop  offset="0.286" style="stop-color:#EED7D7"/>
					<stop  offset="0.4232" style="stop-color:#E9CECF"/>
					<stop  offset="0.6433" style="stop-color:#DBB7BA"/>
					<stop  offset="0.9175" style="stop-color:#C49197"/>
					<stop  offset="1" style="stop-color:#BC848B"/>
				</linearGradient>
				<path class="st12" d="M523.7,545.1v28.4l7.3-6.6c1.5-1.4,2.4-2.3,2.7-2.7c0.2-0.2,0.2-0.5,0.2-0.7c0-0.4-0.2-0.8-0.5-1.1
					s-0.9-0.5-1.7-0.5v-1H544v1c-1.7,0-3.1,0.3-4.3,0.8c-1.1,0.5-2.4,1.3-3.7,2.6l-7.3,6.8l7.3,9.3c2,2.6,3.4,4.2,4.1,4.9
					c1,1,1.9,1.6,2.6,1.9c0.5,0.2,1.4,0.3,2.7,0.3v1.1h-13.9v-1.1c0.8,0,1.3-0.1,1.6-0.4c0.3-0.2,0.4-0.5,0.4-0.9
					c0-0.5-0.4-1.2-1.2-2.3l-8.8-11.2v9.5c0,1.8,0.1,3.1,0.4,3.6c0.3,0.6,0.6,1,1.1,1.2c0.5,0.3,1.5,0.4,3.1,0.4v1.1h-14.5v-1.1
					c1.5,0,2.5-0.2,3.3-0.5c0.4-0.2,0.8-0.6,1-1.1c0.3-0.7,0.5-1.9,0.5-3.6v-26c0-3.3-0.1-5.3-0.2-6.1c-0.1-0.7-0.4-1.2-0.7-1.5
					c-0.3-0.3-0.8-0.4-1.3-0.4c-0.4,0-1.1,0.2-2,0.5l-0.5-1.1l8.5-3.5H523.7z"/>
				<linearGradient id="SVGID_14_" gradientUnits="userSpaceOnUse" x1="423.3213" y1="567.6953" x2="605.0771" y2="567.6953">
					<stop  offset="0" style="stop-color:#D2878F"/>
					<stop  offset="0.286" style="stop-color:#EED7D7"/>
					<stop  offset="0.4232" style="stop-color:#E9CECF"/>
					<stop  offset="0.6433" style="stop-color:#DBB7BA"/>
					<stop  offset="0.9175" style="stop-color:#C49197"/>
					<stop  offset="1" style="stop-color:#BC848B"/>
				</linearGradient>
				<path class="st13" d="M563.3,585.3c-2.9,2.3-4.8,3.6-5.5,3.9c-1.1,0.5-2.3,0.8-3.6,0.8c-2,0-3.6-0.7-4.9-2
					c-1.3-1.3-1.9-3.1-1.9-5.3c0-1.4,0.3-2.6,0.9-3.6c0.9-1.4,2.3-2.7,4.4-4c2.1-1.2,5.6-2.8,10.5-4.5v-1.1c0-2.8-0.5-4.8-1.4-5.9
					c-0.9-1.1-2.2-1.6-3.9-1.6c-1.3,0-2.3,0.4-3.1,1.1c-0.8,0.7-1.2,1.5-1.2,2.4l0.1,1.8c0,1-0.2,1.7-0.7,2.2
					c-0.5,0.5-1.1,0.8-1.9,0.8c-0.8,0-1.4-0.3-1.9-0.8s-0.7-1.3-0.7-2.2c0-1.8,0.9-3.4,2.7-4.9s4.4-2.2,7.7-2.2
					c2.5,0,4.6,0.4,6.2,1.3c1.2,0.6,2.1,1.7,2.7,3c0.4,0.9,0.6,2.7,0.6,5.5v9.7c0,2.7,0.1,4.4,0.2,5c0.1,0.6,0.3,1,0.5,1.2
					c0.2,0.2,0.5,0.3,0.8,0.3c0.3,0,0.6-0.1,0.9-0.2c0.4-0.3,1.3-1,2.5-2.3v1.7c-2.3,3.1-4.5,4.7-6.7,4.7c-1,0-1.8-0.4-2.4-1.1
					C563.6,588.2,563.3,587,563.3,585.3z M563.3,583.2v-10.9c-3.1,1.2-5.2,2.1-6.1,2.6c-1.6,0.9-2.8,1.9-3.5,2.9
					c-0.7,1-1.1,2.1-1.1,3.3c0,1.5,0.4,2.7,1.3,3.7c0.9,1,1.9,1.5,3.1,1.5C558.6,586.3,560.7,585.3,563.3,583.2z"/>
				<linearGradient id="SVGID_15_" gradientUnits="userSpaceOnUse" x1="423.3213" y1="567.6953" x2="605.0771" y2="567.6953">
					<stop  offset="0" style="stop-color:#D2878F"/>
					<stop  offset="0.286" style="stop-color:#EED7D7"/>
					<stop  offset="0.4232" style="stop-color:#E9CECF"/>
					<stop  offset="0.6433" style="stop-color:#DBB7BA"/>
					<stop  offset="0.9175" style="stop-color:#C49197"/>
					<stop  offset="1" style="stop-color:#BC848B"/>
				</linearGradient>
				<path class="st14" d="M583.8,566c3.3-4,6.5-6,9.6-6c1.6,0,2.9,0.4,4,1.2c1.1,0.8,2,2.1,2.7,3.8c0.5,1.2,0.7,3.2,0.7,5.7v12.2
					c0,1.8,0.1,3,0.4,3.7c0.2,0.5,0.6,0.9,1.1,1.2c0.5,0.3,1.4,0.4,2.8,0.4v1.1H591v-1.1h0.6c1.3,0,2.3-0.2,2.8-0.6
					c0.5-0.4,0.9-1,1.1-1.8c0.1-0.3,0.1-1.3,0.1-2.9v-11.7c0-2.6-0.3-4.5-1-5.7c-0.7-1.2-1.8-1.8-3.4-1.8c-2.5,0-4.9,1.3-7.4,4.1v15
					c0,1.9,0.1,3.1,0.3,3.6c0.3,0.6,0.7,1,1.2,1.3c0.5,0.3,1.5,0.4,3.1,0.4v1.1h-14.1v-1.1h0.6c1.5,0,2.4-0.4,2.9-1.1
					c0.5-0.7,0.8-2.1,0.8-4.2v-10.6c0-3.4-0.1-5.5-0.2-6.3c-0.2-0.7-0.4-1.3-0.7-1.5c-0.3-0.3-0.8-0.4-1.3-0.4
					c-0.6,0-1.3,0.2-2.1,0.5l-0.5-1.1l8.6-3.5h1.3V566z"/>
			</g>
		</g>
		<g>
			<g>
				<g>
					<linearGradient id="SVGID_16_" gradientUnits="userSpaceOnUse" x1="423.5488" y1="633.8408" x2="489.3164" y2="633.8408">
						<stop  offset="0" style="stop-color:#D2878F"/>
						<stop  offset="0.286" style="stop-color:#EED7D7"/>
						<stop  offset="0.4232" style="stop-color:#E9CECF"/>
						<stop  offset="0.6433" style="stop-color:#DBB7BA"/>
						<stop  offset="0.9175" style="stop-color:#C49197"/>
						<stop  offset="1" style="stop-color:#BC848B"/>
					</linearGradient>
					<path class="st15" d="M431.6,633c0.4,0.1,0.8,0.2,1.1,0.3s0.6,0.4,0.8,0.6s0.4,0.5,0.5,0.9s0.2,0.7,0.2,1.1c0,0.3,0,0.6-0.1,1
						s-0.2,0.7-0.4,1s-0.5,0.6-0.8,0.9c-0.3,0.3-0.8,0.5-1.3,0.7c-0.4,0.1-0.8,0.2-1.3,0.3s-1,0.1-1.7,0.1h-3.3v-13.1h3.2
						c0.3,0,0.6,0,0.8,0s0.5,0,0.7,0s0.4,0,0.6,0.1s0.3,0.1,0.5,0.1c0.4,0.1,0.8,0.3,1.1,0.5s0.6,0.4,0.8,0.7s0.4,0.6,0.5,0.9
						c0.1,0.3,0.2,0.7,0.2,1.1c0,0.3,0,0.6-0.1,0.9s-0.2,0.6-0.4,0.8s-0.4,0.5-0.6,0.7S431.9,632.8,431.6,633L431.6,633z
						 M429.2,632.3c0.3,0,0.6,0,0.8,0s0.4-0.1,0.6-0.1c0.5-0.2,0.8-0.4,1.1-0.8s0.3-0.8,0.3-1.2c0-0.5-0.1-0.9-0.4-1.2
						s-0.6-0.5-1.1-0.7c-0.2-0.1-0.5-0.1-0.9-0.2s-0.7,0-1.2,0h-1.8v4.2H429.2z M426.8,633.7v4.5h1.9c0.5,0,0.9,0,1.3-0.1
						s0.7-0.1,1-0.2c0.3-0.1,0.6-0.2,0.8-0.4s0.4-0.3,0.5-0.5s0.2-0.4,0.3-0.6s0.1-0.4,0.1-0.6c0-0.2,0-0.5-0.1-0.7
						s-0.2-0.4-0.3-0.6s-0.3-0.3-0.5-0.5s-0.5-0.2-0.8-0.3c-0.2,0-0.4-0.1-0.7-0.1s-0.6,0-0.9,0H426.8z"/>
					<linearGradient id="SVGID_17_" gradientUnits="userSpaceOnUse" x1="423.5488" y1="633.8408" x2="489.3164" y2="633.8408">
						<stop  offset="0" style="stop-color:#D2878F"/>
						<stop  offset="0.286" style="stop-color:#EED7D7"/>
						<stop  offset="0.4232" style="stop-color:#E9CECF"/>
						<stop  offset="0.6433" style="stop-color:#DBB7BA"/>
						<stop  offset="0.9175" style="stop-color:#C49197"/>
						<stop  offset="1" style="stop-color:#BC848B"/>
					</linearGradient>
					<path class="st16" d="M438.7,626.6v11.6h6.4v1.4h-8v-13.1H438.7z"/>
					<linearGradient id="SVGID_18_" gradientUnits="userSpaceOnUse" x1="423.5488" y1="633.8408" x2="489.3164" y2="633.8408">
						<stop  offset="0" style="stop-color:#D2878F"/>
						<stop  offset="0.286" style="stop-color:#EED7D7"/>
						<stop  offset="0.4232" style="stop-color:#E9CECF"/>
						<stop  offset="0.6433" style="stop-color:#DBB7BA"/>
						<stop  offset="0.9175" style="stop-color:#C49197"/>
						<stop  offset="1" style="stop-color:#BC848B"/>
					</linearGradient>
					<path class="st17" d="M447.5,639.7v-13.1h1.6v13.1H447.5z"/>
					<linearGradient id="SVGID_19_" gradientUnits="userSpaceOnUse" x1="423.5488" y1="633.8408" x2="489.3164" y2="633.8408">
						<stop  offset="0" style="stop-color:#D2878F"/>
						<stop  offset="0.286" style="stop-color:#EED7D7"/>
						<stop  offset="0.4232" style="stop-color:#E9CECF"/>
						<stop  offset="0.6433" style="stop-color:#DBB7BA"/>
						<stop  offset="0.9175" style="stop-color:#C49197"/>
						<stop  offset="1" style="stop-color:#BC848B"/>
					</linearGradient>
					<path class="st18" d="M459.1,633.9c0.8,1.2,1.6,2.3,2.4,3.6h0.1c-0.1-1.3-0.1-2.6-0.1-3.9v-7h1.6v13.1h-1.6l-5.1-7.3
						c-0.9-1.3-1.7-2.5-2.4-3.6h-0.1c0.1,1.2,0.1,2.6,0.1,4.2v6.7h-1.6v-13.1h1.6L459.1,633.9z"/>
					<linearGradient id="SVGID_20_" gradientUnits="userSpaceOnUse" x1="423.5488" y1="633.8408" x2="489.3164" y2="633.8408">
						<stop  offset="0" style="stop-color:#D2878F"/>
						<stop  offset="0.286" style="stop-color:#EED7D7"/>
						<stop  offset="0.4232" style="stop-color:#E9CECF"/>
						<stop  offset="0.6433" style="stop-color:#DBB7BA"/>
						<stop  offset="0.9175" style="stop-color:#C49197"/>
						<stop  offset="1" style="stop-color:#BC848B"/>
					</linearGradient>
					<path class="st19" d="M474.9,634.4h-3V633h4.6v6.3c-0.1,0.1-0.3,0.1-0.6,0.2s-0.6,0.1-0.9,0.2s-0.7,0.1-1.1,0.2
						s-0.8,0.1-1.1,0.1c-1.1,0-2.1-0.2-3-0.5s-1.6-0.7-2.2-1.3s-1-1.2-1.3-2s-0.4-1.7-0.4-2.7c0-1.1,0.2-2,0.5-2.9s0.8-1.6,1.4-2.2
						c0.6-0.6,1.4-1.1,2.3-1.4s1.9-0.5,2.9-0.5c0.3,0,0.6,0,0.9,0s0.6,0.1,0.8,0.1s0.5,0.1,0.7,0.2s0.4,0.1,0.6,0.2v1.4
						c-0.4-0.1-0.8-0.2-1.3-0.3s-1-0.1-1.5-0.1c-0.7,0-1.5,0.1-2.1,0.3s-1.3,0.6-1.8,1s-0.9,1-1.2,1.7s-0.5,1.5-0.5,2.4
						c0,0.9,0.1,1.7,0.4,2.3s0.6,1.2,1.1,1.6c0.5,0.4,1,0.7,1.7,1c0.7,0.2,1.4,0.3,2.2,0.3c0.4,0,0.7,0,1.1-0.1c0.4,0,0.7-0.1,1-0.2
						V634.4z"/>
				</g>
			</g>
			<g>
				<g>
					<linearGradient id="SVGID_21_" gradientUnits="userSpaceOnUse" x1="482.0215" y1="633.8408" x2="540.3184" y2="633.8408">
						<stop  offset="0" style="stop-color:#D2878F"/>
						<stop  offset="0.286" style="stop-color:#EED7D7"/>
						<stop  offset="0.4232" style="stop-color:#E9CECF"/>
						<stop  offset="0.6433" style="stop-color:#DBB7BA"/>
						<stop  offset="0.9175" style="stop-color:#C49197"/>
						<stop  offset="1" style="stop-color:#BC848B"/>
					</linearGradient>
					<path class="st20" d="M490.8,628.8c-0.1,0.6-0.3,1.6-0.7,3.1l-2,7.8h-1.6l-4-13.1h1.6l2.2,7.7c0.4,1.2,0.7,2.3,0.9,3.3h0
						c0.1-0.6,0.3-1.2,0.4-1.8s0.3-1.1,0.4-1.5l2-7.7h1.6l2,7.7c0.5,1.8,0.8,2.9,0.8,3.3h0c0.2-0.9,0.5-2,0.9-3.3l2.2-7.7h1.6
						l-4,13.1h-1.6l-2-7.8C491.2,630.5,490.9,629.5,490.8,628.8L490.8,628.8z"/>
					<linearGradient id="SVGID_22_" gradientUnits="userSpaceOnUse" x1="482.0215" y1="633.8408" x2="540.3184" y2="633.8408">
						<stop  offset="0" style="stop-color:#D2878F"/>
						<stop  offset="0.286" style="stop-color:#EED7D7"/>
						<stop  offset="0.4232" style="stop-color:#E9CECF"/>
						<stop  offset="0.6433" style="stop-color:#DBB7BA"/>
						<stop  offset="0.9175" style="stop-color:#C49197"/>
						<stop  offset="1" style="stop-color:#BC848B"/>
					</linearGradient>
					<path class="st21" d="M501.3,639.7v-13.1h1.6v13.1H501.3z"/>
					<linearGradient id="SVGID_23_" gradientUnits="userSpaceOnUse" x1="482.0215" y1="633.8408" x2="540.3184" y2="633.8408">
						<stop  offset="0" style="stop-color:#D2878F"/>
						<stop  offset="0.286" style="stop-color:#EED7D7"/>
						<stop  offset="0.4232" style="stop-color:#E9CECF"/>
						<stop  offset="0.6433" style="stop-color:#DBB7BA"/>
						<stop  offset="0.9175" style="stop-color:#C49197"/>
						<stop  offset="1" style="stop-color:#BC848B"/>
					</linearGradient>
					<path class="st22" d="M510.9,639.7h-1.6v-11.6H505v-1.4h10.3v1.4h-4.4V639.7z"/>
					<linearGradient id="SVGID_24_" gradientUnits="userSpaceOnUse" x1="482.0215" y1="633.8408" x2="540.3184" y2="633.8408">
						<stop  offset="0" style="stop-color:#D2878F"/>
						<stop  offset="0.286" style="stop-color:#EED7D7"/>
						<stop  offset="0.4232" style="stop-color:#E9CECF"/>
						<stop  offset="0.6433" style="stop-color:#DBB7BA"/>
						<stop  offset="0.9175" style="stop-color:#C49197"/>
						<stop  offset="1" style="stop-color:#BC848B"/>
					</linearGradient>
					<path class="st23" d="M518.9,632.3h6.8v-5.7h1.6v13.1h-1.6v-6h-6.8v6h-1.6v-13.1h1.6V632.3z"/>
				</g>
			</g>
			<g>
				<g>
					<linearGradient id="SVGID_25_" gradientUnits="userSpaceOnUse" x1="533.0234" y1="633.8408" x2="599.7773" y2="633.8408">
						<stop  offset="0" style="stop-color:#D2878F"/>
						<stop  offset="0.286" style="stop-color:#EED7D7"/>
						<stop  offset="0.4232" style="stop-color:#E9CECF"/>
						<stop  offset="0.6433" style="stop-color:#DBB7BA"/>
						<stop  offset="0.9175" style="stop-color:#C49197"/>
						<stop  offset="1" style="stop-color:#BC848B"/>
					</linearGradient>
					<path class="st24" d="M536,630.1c0,0.4,0.1,0.7,0.2,1c0.2,0.3,0.4,0.5,0.6,0.6c0.3,0.2,0.6,0.3,0.9,0.4
						c0.3,0.1,0.7,0.2,1.1,0.3c0.5,0.1,1,0.3,1.5,0.4c0.5,0.2,0.9,0.4,1.3,0.6s0.7,0.6,0.9,1c0.2,0.4,0.4,1,0.4,1.6
						c0,0.7-0.1,1.3-0.4,1.8s-0.6,0.9-1.1,1.2s-1,0.5-1.6,0.7s-1.3,0.2-2,0.2c-0.3,0-0.7,0-1-0.1s-0.7-0.1-1-0.2s-0.6-0.2-0.9-0.2
						s-0.5-0.2-0.6-0.3v-1.5c0.2,0.1,0.5,0.2,0.8,0.3s0.6,0.2,0.9,0.2s0.6,0.1,0.9,0.2s0.6,0.1,0.9,0.1c0.5,0,0.9,0,1.3-0.1
						s0.8-0.2,1.1-0.4s0.6-0.4,0.7-0.7c0.2-0.3,0.3-0.7,0.3-1.2c0-0.4-0.1-0.7-0.2-1c-0.2-0.3-0.4-0.5-0.6-0.6s-0.6-0.3-0.9-0.4
						s-0.7-0.2-1.1-0.3c-0.5-0.1-1-0.2-1.5-0.4s-0.9-0.4-1.3-0.6s-0.7-0.6-0.9-1s-0.3-0.9-0.3-1.6c0-0.7,0.1-1.2,0.4-1.7
						c0.2-0.5,0.6-0.9,1-1.2s0.9-0.5,1.4-0.7s1.1-0.2,1.7-0.2c0.7,0,1.3,0.1,1.9,0.2c0.6,0.1,1.2,0.3,1.7,0.5v1.5
						c-0.5-0.2-1.1-0.4-1.7-0.6s-1.2-0.2-1.9-0.2c-0.5,0-0.9,0.1-1.3,0.2s-0.7,0.3-0.9,0.5s-0.4,0.4-0.5,0.7S536,629.8,536,630.1z"
						/>
					<linearGradient id="SVGID_26_" gradientUnits="userSpaceOnUse" x1="533.0234" y1="633.8408" x2="599.7773" y2="633.8408">
						<stop  offset="0" style="stop-color:#D2878F"/>
						<stop  offset="0.286" style="stop-color:#EED7D7"/>
						<stop  offset="0.4232" style="stop-color:#E9CECF"/>
						<stop  offset="0.6433" style="stop-color:#DBB7BA"/>
						<stop  offset="0.9175" style="stop-color:#C49197"/>
						<stop  offset="1" style="stop-color:#BC848B"/>
					</linearGradient>
					<path class="st25" d="M550.4,639.7h-1.6v-11.6h-4.4v-1.4h10.3v1.4h-4.4V639.7z"/>
					<linearGradient id="SVGID_27_" gradientUnits="userSpaceOnUse" x1="533.0234" y1="633.8408" x2="599.7773" y2="633.8408">
						<stop  offset="0" style="stop-color:#D2878F"/>
						<stop  offset="0.286" style="stop-color:#EED7D7"/>
						<stop  offset="0.4232" style="stop-color:#E9CECF"/>
						<stop  offset="0.6433" style="stop-color:#DBB7BA"/>
						<stop  offset="0.9175" style="stop-color:#C49197"/>
						<stop  offset="1" style="stop-color:#BC848B"/>
					</linearGradient>
					<path class="st26" d="M561.9,634.5v5.3h-1.6v-5.3l-4.8-7.8h1.7l3.8,6.3h0l3.8-6.3h1.7L561.9,634.5z"/>
					<linearGradient id="SVGID_28_" gradientUnits="userSpaceOnUse" x1="533.0234" y1="633.8408" x2="599.7773" y2="633.8408">
						<stop  offset="0" style="stop-color:#D2878F"/>
						<stop  offset="0.286" style="stop-color:#EED7D7"/>
						<stop  offset="0.4232" style="stop-color:#E9CECF"/>
						<stop  offset="0.6433" style="stop-color:#DBB7BA"/>
						<stop  offset="0.9175" style="stop-color:#C49197"/>
						<stop  offset="1" style="stop-color:#BC848B"/>
					</linearGradient>
					<path class="st27" d="M570.3,626.6v11.6h6.4v1.4h-8v-13.1H570.3z"/>
					<linearGradient id="SVGID_29_" gradientUnits="userSpaceOnUse" x1="533.0234" y1="633.8408" x2="599.7773" y2="633.8408">
						<stop  offset="0" style="stop-color:#D2878F"/>
						<stop  offset="0.286" style="stop-color:#EED7D7"/>
						<stop  offset="0.4232" style="stop-color:#E9CECF"/>
						<stop  offset="0.6433" style="stop-color:#DBB7BA"/>
						<stop  offset="0.9175" style="stop-color:#C49197"/>
						<stop  offset="1" style="stop-color:#BC848B"/>
					</linearGradient>
					<path class="st28" d="M580.7,638.3h6.7v1.4h-8.3v-13.1h7.9v1.4h-6.3v4.2h5.6v1.4h-5.6V638.3z"/>
				</g>
			</g>
		</g>
		<linearGradient id="SVGID_30_" gradientUnits="userSpaceOnUse" x1="419.0158" y1="445" x2="442.0158" y2="445">
			<stop  offset="8.938950e-03" style="stop-color:#EED7D7"/>
			<stop  offset="1" style="stop-color:#BC848B"/>
		</linearGradient>
		<rect x="419" y="443.5" class="st29" width="23" height="3"/>
		<linearGradient id="SVGID_31_" gradientUnits="userSpaceOnUse" x1="423.0158" y1="619.6816" x2="589.0158" y2="619.6816">
			<stop  offset="8.938950e-03" style="stop-color:#EED7D7"/>
			<stop  offset="1" style="stop-color:#BC848B"/>
		</linearGradient>
		<rect x="423" y="618.2" class="st30" width="166" height="3"/>
		<linearGradient id="SVGID_32_" gradientUnits="userSpaceOnUse" x1="423.0158" y1="648" x2="589.0158" y2="648">
			<stop  offset="8.938950e-03" style="stop-color:#EED7D7"/>
			<stop  offset="1" style="stop-color:#BC848B"/>
		</linearGradient>
		<rect x="423" y="646.5" class="st31" width="166" height="3"/>
		<g>
			<g>
				<linearGradient id="SVGID_33_" gradientUnits="userSpaceOnUse" x1="649.2626" y1="427.9821" x2="674.0937" y2="427.9821">
					<stop  offset="8.938950e-03" style="stop-color:#EED7D7"/>
					<stop  offset="1" style="stop-color:#BC848B"/>
				</linearGradient>
				<path class="st32" d="M673.6,441.7c-0.6,0.9-7.6-2-13.4-7.4c-3.7-3.4-5.8-6.8-6.9-8.9c-2.7-5-4.2-11-3.3-11.4
					c0.4-0.2,1.2,1.1,2.7,2.7c3.6,3.9,5.6,3.6,9.7,6.7c0,0,6.7,5.1,10.4,14.7c0.1,0.2,0.4,1.1,0.7,2.3
					C673.6,441.3,673.6,441.6,673.6,441.7z"/>
				<linearGradient id="SVGID_34_" gradientUnits="userSpaceOnUse" x1="670.0649" y1="423.322" x2="679.9306" y2="423.322">
					<stop  offset="8.938950e-03" style="stop-color:#EED7D7"/>
					<stop  offset="1" style="stop-color:#BC848B"/>
				</linearGradient>
				<path class="st33" d="M670.7,429.8c-0.2-2.3-0.3-4.1,0-6.7c0.8-7.7,4.3-12.6,5-17.1c0-0.2,0.1-1,0.3-1c0.4,0,0.8,3.2,1,4.3
					c1.6,11.3,2.3,11.3,2.3,14.7c0.2,8.9-4,17.6-6,17.4C671.5,441.3,670.9,432.4,670.7,429.8z"/>
				<linearGradient id="SVGID_35_" gradientUnits="userSpaceOnUse" x1="653.709" y1="431.0229" x2="674.8778" y2="431.0229">
					<stop  offset="8.938950e-03" style="stop-color:#EED7D7"/>
					<stop  offset="1" style="stop-color:#BC848B"/>
				</linearGradient>
				<path class="st34" d="M674.4,419.5c-2.5,7.2-2.4,12.6-1.7,16.4c0.5,3,1.6,6,1,6.4c-0.7,0.4-3.1-3.4-5-6
					c-2.9-4-7.5-9.3-14.7-14.7"/>
				<linearGradient id="SVGID_36_" gradientUnits="userSpaceOnUse" x1="681.8091" y1="449.2149" x2="697.1973" y2="449.2149">
					<stop  offset="8.938950e-03" style="stop-color:#EED7D7"/>
					<stop  offset="1" style="stop-color:#BC848B"/>
				</linearGradient>
				<path class="st35" d="M693.5,432.5c-0.7,2.9-1.6,5.4-2.3,7.4c-1,2.4-1.7,4.2-3,6.4c-1.9,3-2.8,3.4-3.7,5.7
					c-1,2.9-0.6,5.4-0.7,5.4c0,0-0.7-4.3,0.3-9.7c0.8-4.1,2.2-7,5-12.7c2.7-5.4,5-10.1,6.4-9.7c0.5,0.1,0.8,0.8,1,7
					c0.3,7,0.4,10.5-0.3,12c-0.8,1.7-3.1,3.8-7.7,8c-2.3,2.1-3.9,2.9-4.7,5c-0.9,2.2-1.8,14.9-1.3,16.4"/>
				<linearGradient id="SVGID_37_" gradientUnits="userSpaceOnUse" x1="684.3945" y1="447.4651" x2="719.7286" y2="447.4651">
					<stop  offset="8.938950e-03" style="stop-color:#EED7D7"/>
					<stop  offset="1" style="stop-color:#BC848B"/>
				</linearGradient>
				<path class="st36" d="M694.9,453.6c0.6-1.8,1.6-4.1,3.3-6.4c3.6-4.9,8.3-6.9,10.4-7.7c0,0,3.6-1.7,8.7-2c0.8-0.1,1.9-0.1,2,0.3
					c0.2,0.5-1.1,1.3-1.7,1.7c-3,2.2-2.6,5.7-4.3,9c-2.2,4.4-7.8,8-12,7.4C698.7,455.5,698.3,453.9,694.9,453.6
					C694.8,453.6,694.8,453.6,694.9,453.6c-3.1-0.3-5.4,0.7-6.1,1c-2,0.9-3.3,2.2-4,3"/>
				<linearGradient id="SVGID_38_" gradientUnits="userSpaceOnUse" x1="696.1206" y1="445.5807" x2="716.4192" y2="445.5807">
					<stop  offset="8.938950e-03" style="stop-color:#EED7D7"/>
					<stop  offset="1" style="stop-color:#BC848B"/>
				</linearGradient>
				<path class="st37" d="M716.2,438.9c-3.5,1.7-5.9,3.6-7.4,5c-3.1,2.9-4,5.4-7.4,7c-2.1,1-4,1.3-5.4,1.3"/>
				<linearGradient id="SVGID_39_" gradientUnits="userSpaceOnUse" x1="668.252" y1="551.0442" x2="693.2415" y2="551.0442">
					<stop  offset="8.938950e-03" style="stop-color:#EED7D7"/>
					<stop  offset="1" style="stop-color:#BC848B"/>
				</linearGradient>
				<path class="st38" d="M668.7,427.8c9.7,26.2,20,62.7,23.1,107c4.2,59.6-6.3,108.3-15.7,139.4"/>
				<linearGradient id="SVGID_40_" gradientUnits="userSpaceOnUse" x1="640.6583" y1="463.6201" x2="683.633" y2="463.6201">
					<stop  offset="8.938950e-03" style="stop-color:#EED7D7"/>
					<stop  offset="1" style="stop-color:#BC848B"/>
				</linearGradient>
				<path class="st39" d="M676.6,468.8c-1.6-1.1-3.1-1.7-4.5-1.9c-3.6-0.6-4.9,1.2-10.4,0.7c-1.7-0.2-7.9-0.8-13.4-5.4
					c-5.2-4.3-7.8-10.7-7-11.4c0.5-0.4,1.8,1.4,4.7,3c4.9,2.9,7.6,1.6,13.7,3c2.4,0.6,10.6,2.5,15.4,9.4
					C675.7,467.1,676.2,468,676.6,468.8c2.1,1.4,4.4,3.8,6.6,7.8"/>
				<linearGradient id="SVGID_41_" gradientUnits="userSpaceOnUse" x1="644.2863" y1="460.4895" x2="672.2772" y2="460.4895">
					<stop  offset="8.938950e-03" style="stop-color:#EED7D7"/>
					<stop  offset="1" style="stop-color:#BC848B"/>
				</linearGradient>
				<path class="st40" d="M644.6,454.9c2.4,2.5,4.7,3.9,6.4,4.7c5.3,2.6,9.2,1.8,17.1,4.7c1.7,0.6,3.1,1.3,4,1.7"/>
				<linearGradient id="SVGID_42_" gradientUnits="userSpaceOnUse" x1="689.2916" y1="489.8111" x2="721.0749" y2="489.8111">
					<stop  offset="8.938950e-03" style="stop-color:#EED7D7"/>
					<stop  offset="1" style="stop-color:#BC848B"/>
				</linearGradient>
				<path class="st41" d="M696.8,497.9c0.1-0.7,0.3-1.5,0.4-2.1c0.5-2.3,1.1-4.2,1.6-5.7c4.3-12.4,12.6-20.6,18.1-21.7
					c0.2,0,3.4-0.7,3.7,0c0.2,0.4-0.5,0.8-1,1.7c-0.9,1.6-0.5,3.5-0.3,4.3c0.7,4.1-1.2,9.3-1.3,9.7c-1.5,4.2-5.3,6.4-11,9.4
					C702.4,495.7,699.7,495.8,696.8,497.9c-0.2,0.2-0.4,0.3-0.6,0.5c-2.6,2.1-5.4,6-6.4,13.7"/>
				<linearGradient id="SVGID_43_" gradientUnits="userSpaceOnUse" x1="696.9243" y1="482.6452" x2="717.8631" y2="482.6452">
					<stop  offset="8.938950e-03" style="stop-color:#EED7D7"/>
					<stop  offset="1" style="stop-color:#BC848B"/>
				</linearGradient>
				<path class="st42" d="M697.2,495.8c4.7-3.2,9.8-7.7,14-13.9c3-4.5,4.9-8.9,6.2-12.5"/>
				<linearGradient id="SVGID_44_" gradientUnits="userSpaceOnUse" x1="687.8776" y1="489.79" x2="698.0413" y2="489.79">
					<stop  offset="8.938950e-03" style="stop-color:#EED7D7"/>
					<stop  offset="1" style="stop-color:#BC848B"/>
				</linearGradient>
				<path class="st43" d="M693.5,493c-1.2-1.3-4.6-5.3-5-11.4c-0.2-2.5-0.3-6.1,3-11.7c0.5-0.8,0.7-2,1.3-2c1.3-0.1,2.7,4.3,3.3,6.4
					c0.4,1.2,1.1,3.6,1.3,5.7c0.6,5.7-2.8,9.8-5,14.4c-1.8,3.8-3.7,9.5-3.3,17.7"/>
				<linearGradient id="SVGID_45_" gradientUnits="userSpaceOnUse" x1="691.6356" y1="481.9745" x2="693.3071" y2="481.9745">
					<stop  offset="8.938950e-03" style="stop-color:#EED7D7"/>
					<stop  offset="1" style="stop-color:#BC848B"/>
				</linearGradient>
				<path class="st44" d="M692.8,493c0-0.1,0-0.3-0.1-0.4c-0.1-0.9-0.2-1.8-0.2-2.9c-0.2-4.7,0.4-7,0.3-11.7c0-1.6-0.2-4-0.7-7"/>
				<g>
					<linearGradient id="SVGID_46_" gradientUnits="userSpaceOnUse" x1="657.9233" y1="509.0099" x2="691.143" y2="509.0099">
						<stop  offset="8.938950e-03" style="stop-color:#EED7D7"/>
						<stop  offset="1" style="stop-color:#BC848B"/>
					</linearGradient>
					<path class="st45" d="M681.9,523.6c-0.5-0.5-1-0.9-1.5-1.4c-7.8-7.4-7.6-6.8-9.4-8.7c-10.3-11.1-13.7-26.8-12.4-27.4
						c0.3-0.1,0.7,0.3,1.3,1c4.6,4.5,8,5.4,11.4,7.7c6.6,4.6,9.1,12.4,9.7,14C683,514.7,682.6,520,681.9,523.6
						c3.7,3.5,6.7,6.5,8.9,8.6"/>
					<linearGradient id="SVGID_47_" gradientUnits="userSpaceOnUse" x1="642.1381" y1="521.9705" x2="682.9362" y2="521.9705">
						<stop  offset="8.938950e-03" style="stop-color:#EED7D7"/>
						<stop  offset="1" style="stop-color:#BC848B"/>
					</linearGradient>
					<path class="st46" d="M642.6,516.8c0,0.7,2.3,0.7,5.7,2.7c3.8,2.2,3.9,3.9,7.4,6.4c1.8,1.3,5.4,3.9,9.7,3.7
						c5-0.2,6.3-4,11.4-3.7c3.2,0.2,5.6,1.9,5.7,1.7c0.1-0.3-2.5-1.6-5.7-4c-3.3-2.5-3.9-3.6-5.7-5c-5-4-11.3-4-16.4-4
						C648.9,514.4,642.7,515.6,642.6,516.8z"/>
					<linearGradient id="SVGID_48_" gradientUnits="userSpaceOnUse" x1="648.2957" y1="521.4411" x2="677.6285" y2="521.4411">
						<stop  offset="8.938950e-03" style="stop-color:#EED7D7"/>
						<stop  offset="1" style="stop-color:#BC848B"/>
					</linearGradient>
					<path class="st47" d="M648.3,517.8c3.6,0.2,7.8,0.7,12.4,1.7c6.7,1.5,12.4,3.6,16.7,5.7"/>
					<linearGradient id="SVGID_49_" gradientUnits="userSpaceOnUse" x1="659.6546" y1="503.5153" x2="679.8728" y2="503.5153">
						<stop  offset="8.938950e-03" style="stop-color:#EED7D7"/>
						<stop  offset="1" style="stop-color:#BC848B"/>
					</linearGradient>
					<path class="st48" d="M660,489c2.1,2.3,4.2,4.9,6.4,7.7c5.7,7.5,9.9,14.8,13,21.4"/>
				</g>
				<linearGradient id="SVGID_50_" gradientUnits="userSpaceOnUse" x1="705.0324" y1="530.148" x2="736.9842" y2="530.148">
					<stop  offset="8.938950e-03" style="stop-color:#EED7D7"/>
					<stop  offset="1" style="stop-color:#BC848B"/>
				</linearGradient>
				<path class="st49" d="M705.8,546.2c-1.8-1.6,4.4-11,8-15.7c2.8-3.7,5.3-6.2,7.2-7.9c2.4-2.1,4.4-3.5,5.8-4.5
					c1.2-0.8,8-5.4,9.4-4c0.4,0.4,0.2,0.9,0,2.3c-0.6,4.3-0.3,5.1-0.7,7c-1.8,9.7-10,16.4-10,16.4c-2,1.6-7.3,3.2-17.7,6.4
					C707.2,546.4,706.3,546.7,705.8,546.2z"/>
				<linearGradient id="SVGID_51_" gradientUnits="userSpaceOnUse" x1="692.2928" y1="536.0229" x2="712.7361" y2="536.0229">
					<stop  offset="8.938950e-03" style="stop-color:#EED7D7"/>
					<stop  offset="1" style="stop-color:#BC848B"/>
				</linearGradient>
				<path class="st50" d="M704.9,545.7c-1.6-3.8-2.1-7-2.4-9.2c-0.5-5.4,0.5-9.4,2.3-16.7c0.3-1.1,2.3-9.2,3.3-9
					c0.4,0.1,0.4,1.5,0.7,3.7c0.6,4.4,1.9,6.6,2.7,9c1.1,3.5,0.8,7.1,0.1,10.1v0c-1.2,4.9-3.6,8.7-3.7,8.9c-0.9,1.4-1.5,2-2.3,2.6v0
					C705.3,545.3,705.1,545.5,704.9,545.7c-0.8,0.7-1.8,1.5-3.4,3.2c-4,4.3-6.8,8.7-8.8,12.7"/>
				<linearGradient id="SVGID_52_" gradientUnits="userSpaceOnUse" x1="705.354" y1="528.2034" x2="708.4006" y2="528.2034">
					<stop  offset="8.938950e-03" style="stop-color:#EED7D7"/>
					<stop  offset="1" style="stop-color:#BC848B"/>
				</linearGradient>
				<path class="st51" d="M707.8,518.5c0.1,2.9,0.1,6.3-0.3,10c-0.4,3.5-1,6.7-1.7,9.4"/>
				<linearGradient id="SVGID_53_" gradientUnits="userSpaceOnUse" x1="710.4042" y1="530.5107" x2="733.3907" y2="530.5107">
					<stop  offset="8.938950e-03" style="stop-color:#EED7D7"/>
					<stop  offset="1" style="stop-color:#BC848B"/>
				</linearGradient>
				<path class="st52" d="M710.9,542.5c2.9-6,6.4-9.2,9-11c2.9-2,5.4-2.7,8.4-5.7c2.5-2.6,3.9-5.4,4.7-7.4"/>
				<linearGradient id="SVGID_54_" gradientUnits="userSpaceOnUse" x1="635.4008" y1="582.8912" x2="681.3698" y2="582.8912">
					<stop  offset="8.938950e-03" style="stop-color:#EED7D7"/>
					<stop  offset="1" style="stop-color:#BC848B"/>
				</linearGradient>
				<path class="st53" d="M674.3,585.3c-8.5,4.4-14.5,4.4-18.6,3.4c-3.7-0.9-7.8-3.1-13.7-2c-3.2,0.6-5.6,2-6,1.3
					c-0.5-0.8,2.6-3.9,5.7-6c4.6-3.3,16.3-5.9,18.7-5.4c3.9,0.9,6.9,3.1,10,5.4C672.3,583.4,673.3,584.4,674.3,585.3
					c0.8,0.7,1.6,1.4,2.8,2.1c1.1,0.7,2.5,1.3,4.1,1.9h0"/>
				<linearGradient id="SVGID_55_" gradientUnits="userSpaceOnUse" x1="641.1089" y1="584.1553" x2="670.7388" y2="584.1553">
					<stop  offset="8.938950e-03" style="stop-color:#EED7D7"/>
					<stop  offset="1" style="stop-color:#BC848B"/>
				</linearGradient>
				<path class="st54" d="M641.3,585c4.6-1.9,8.3-2.1,10.7-2c4.9,0.3,8.5,2.2,16.4,2.3c1,0,1.8,0,2.3,0"/>
				<linearGradient id="SVGID_56_" gradientUnits="userSpaceOnUse" x1="661.0882" y1="568.5104" x2="682.8364" y2="568.5104">
					<stop  offset="8.938950e-03" style="stop-color:#EED7D7"/>
					<stop  offset="1" style="stop-color:#BC848B"/>
				</linearGradient>
				<path class="st55" d="M674.6,578.9c2.1,1.4,4.2,2.7,5.9,6.1c0.9,1.9,1.3,3.7,1.7,3.7c0.5-0.1,0.1-4.2-0.3-9.4
					c-1.3-15.3-0.9-14.5-1.3-15.7c-3.9-11.6-15.8-14.9-17.7-15.2c-0.4-0.1-0.8-0.1-1,0.2c-0.8,1,2.9,4.5,5,8
					c4.4,7.2,0.9,12,2.8,16.8"/>
				<linearGradient id="SVGID_57_" gradientUnits="userSpaceOnUse" x1="665.6788" y1="566.637" x2="680.728" y2="566.637">
					<stop  offset="8.938950e-03" style="stop-color:#EED7D7"/>
					<stop  offset="1" style="stop-color:#BC848B"/>
				</linearGradient>
				<path class="st56" d="M666,552.2c3.6,3.9,5.2,7.4,6,10c1.6,5.1,0.8,8.5,3.3,13c1.5,2.8,3.6,4.6,5,5.7"/>
				<linearGradient id="SVGID_58_" gradientUnits="userSpaceOnUse" x1="685.7656" y1="626.2352" x2="701.1428" y2="626.2352">
					<stop  offset="8.938950e-03" style="stop-color:#EED7D7"/>
					<stop  offset="1" style="stop-color:#BC848B"/>
				</linearGradient>
				<path class="st57" d="M686,633.6c3.9-2.4,6.9-4.9,9.2-7.3c2.4-2.5,4-4.9,5.2-7.1c0.1-0.1,0.1-0.3,0.2-0.4"/>
				<linearGradient id="SVGID_59_" gradientUnits="userSpaceOnUse" x1="699.8503" y1="603.0059" x2="734.777" y2="603.0059">
					<stop  offset="8.938950e-03" style="stop-color:#EED7D7"/>
					<stop  offset="1" style="stop-color:#BC848B"/>
				</linearGradient>
				<path class="st58" d="M701.6,616.9c-0.3,0.6-0.5,1.2-0.9,1.8c0.2,0,0.3,0,0.5,0c3.8-0.3,6.6-1.2,8.3-1.9
					c6.6-2.7,14-9.2,16.7-16.7c0.9-2.5,1.9-6.9,5.7-10.4c1.1-1,2.5-2,2.3-2.3c-0.3-0.5-5.5,2-6.4,2.3c-7.3,3.5-15.2,7.3-20.7,14.4
					C703.1,609.3,703.9,611.8,701.6,616.9C701.6,616.9,701.6,616.9,701.6,616.9"/>
				<linearGradient id="SVGID_60_" gradientUnits="userSpaceOnUse" x1="695.5029" y1="597.308" x2="711.5945" y2="597.308">
					<stop  offset="8.938950e-03" style="stop-color:#EED7D7"/>
					<stop  offset="1" style="stop-color:#BC848B"/>
				</linearGradient>
				<path class="st59" d="M696.8,616.1c-0.9-5.2-0.9-9.6-0.7-12.7c0.2-3.2,0.5-6.4,2-10.4c0.7-1.7,2.4-5.7,6-9.7
					c1.3-1.4,2.3-2.3,4-3.7c2.2-1.8,2.5-1.8,2.7-1.7c0.8,0.4-0.5,3.6-1.3,7.7c-0.9,4.5-0.6,7.6-0.7,9.4
					C708.7,599.2,706.4,605.8,696.8,616.1z"/>
				<linearGradient id="SVGID_61_" gradientUnits="userSpaceOnUse" x1="712.4503" y1="577.9498" x2="729.8972" y2="577.9498">
					<stop  offset="8.938950e-03" style="stop-color:#EED7D7"/>
					<stop  offset="1" style="stop-color:#BC848B"/>
				</linearGradient>
				<path class="st60" d="M713.5,594c-0.6-0.4-1.1-1.5,0.3-8c1.5-6.8,2.2-10.3,4-13.4c1.1-1.9,4-4.6,9.7-10c0.4-0.4,1.3-1.2,1.7-1
					c0.5,0.3-0.3,2.4-0.7,3.3c-1.7,5.1,0.8,7.8,0.3,13c-0.6,7.1-6.1,11.6-7.4,12.7C719.6,592.3,715.3,595.3,713.5,594z"/>
				<linearGradient id="SVGID_62_" gradientUnits="userSpaceOnUse" x1="700.7109" y1="592.0812" x2="727.0161" y2="592.0812">
					<stop  offset="8.938950e-03" style="stop-color:#EED7D7"/>
					<stop  offset="1" style="stop-color:#BC848B"/>
				</linearGradient>
				<path class="st61" d="M701.2,618.7c0.1-0.6,0.3-1.2,0.4-1.8c2.2-9.7,5.5-15.1,8.6-18.2c1-1,2.5-2.4,4.2-4.4
					c1.4-1.7,2.9-3.9,4.1-6.7c1.9-4.2,1.9-7.1,4.3-13.7c1.4-3.7,2.8-6.6,3.7-8.4"/>
				<linearGradient id="SVGID_63_" gradientUnits="userSpaceOnUse" x1="694.7451" y1="604.7237" x2="707.6454" y2="604.7237">
					<stop  offset="8.938950e-03" style="stop-color:#EED7D7"/>
					<stop  offset="1" style="stop-color:#BC848B"/>
				</linearGradient>
				<path class="st62" d="M695.2,626.2c0.3-2.8,0.7-5.3,1.1-7.6c0.2-0.9,0.3-1.8,0.5-2.6c0.4-2,0.9-3.7,1.3-5.3
					c1.4-5,3.9-12.7,4.3-14c1.8-5.6,3.5-10.2,4.7-13.4"/>
				<linearGradient id="SVGID_64_" gradientUnits="userSpaceOnUse" x1="640.0016" y1="578.113" x2="690.0038" y2="578.113">
					<stop  offset="8.938950e-03" style="stop-color:#EED7D7"/>
					<stop  offset="1" style="stop-color:#BC848B"/>
				</linearGradient>
				<path class="st63" d="M669.2,577.3c-2.7-1.1-5-1.8-8.7-5.3c-7-6.8-7.8-13.3-16-18c-1.4-0.8-4.2-2.3-4-3c0.3-0.8,4.5-0.1,5,0
					c8.5,1.5,14.2,7.2,15,8c5.5,5.6,7.2,11.9,8,15C668.8,575.2,669,576.3,669.2,577.3c1.8,0.7,3.7,1.6,6.3,3.7
					c4.9,3.9,10.9,11,14,25"/>
			</g>
		</g>
	</g>
</g>
</svg>
