<svg width="40" height="40" viewBox="0 0 40 40" fill="none" xmlns="http://www.w3.org/2000/svg">
<path fill-rule="evenodd" clip-rule="evenodd" d="M35.8863 19.3101L34.583 18.2667V35.4167H36.6663C36.9979 35.4167 37.3158 35.5484 37.5502 35.7829C37.7846 36.0173 37.9163 36.3352 37.9163 36.6667C37.9163 36.9983 37.7846 37.3162 37.5502 37.5506C37.3158 37.7851 36.9979 37.9167 36.6663 37.9167H3.33301C3.00149 37.9167 2.68354 37.7851 2.44912 37.5506C2.2147 37.3162 2.08301 36.9983 2.08301 36.6667C2.08301 36.3352 2.2147 36.0173 2.44912 35.7829C2.68354 35.5484 3.00149 35.4167 3.33301 35.4167H5.41634V18.2667L4.11467 19.3101C3.98642 19.4126 3.83922 19.4889 3.68148 19.5345C3.52375 19.5802 3.35856 19.5943 3.19537 19.5762C3.03217 19.558 2.87415 19.5078 2.73033 19.4286C2.58651 19.3493 2.45971 19.2425 2.35717 19.1143C2.25463 18.986 2.17836 18.8388 2.13271 18.6811C2.08705 18.5233 2.07292 18.3581 2.0911 18.1949C2.10929 18.0317 2.15944 17.8737 2.23869 17.7299C2.31795 17.5861 2.42475 17.4593 2.55301 17.3567L16.0947 6.52342C17.203 5.63652 18.5802 5.15332 19.9997 5.15332C21.4192 5.15332 22.7964 5.63652 23.9047 6.52342L37.4463 17.3567C37.5768 17.4584 37.6858 17.585 37.767 17.7291C37.8482 17.8732 37.9 18.032 37.9194 18.1962C37.9388 18.3605 37.9254 18.527 37.8799 18.686C37.8345 18.8451 37.7579 18.9935 37.6547 19.1228C37.5515 19.252 37.4237 19.3595 37.2786 19.439C37.1335 19.5184 36.9741 19.5683 36.8097 19.5858C36.6452 19.6032 36.4789 19.5878 36.3204 19.5405C36.1619 19.4931 36.0143 19.4148 35.8863 19.3101ZM19.9997 11.2501C18.7841 11.2501 17.6183 11.733 16.7588 12.5925C15.8992 13.4521 15.4163 14.6178 15.4163 15.8334C15.4163 17.049 15.8992 18.2148 16.7588 19.0743C17.6183 19.9339 18.7841 20.4167 19.9997 20.4167C21.2153 20.4167 22.381 19.9339 23.2406 19.0743C24.1001 18.2148 24.583 17.049 24.583 15.8334C24.583 14.6178 24.1001 13.4521 23.2406 12.5925C22.381 11.733 21.2153 11.2501 19.9997 11.2501ZM22.9097 22.1868C22.1447 22.0834 21.1897 22.0834 20.0813 22.0834H19.918C18.8097 22.0834 17.8547 22.0834 17.0897 22.1868C16.2713 22.2968 15.4847 22.5451 14.848 23.1818C14.2113 23.8184 13.963 24.6051 13.853 25.4234C13.7497 26.1884 13.7497 27.1434 13.7497 28.2518V35.4167H26.2497V28.0451C26.2497 27.0251 26.243 26.1401 26.1463 25.4234C26.0363 24.6051 25.788 23.8184 25.1513 23.1818C24.5147 22.5451 23.7297 22.2968 22.9097 22.1868Z" fill="#F8CB46"/>
<g opacity="0.5">
<path d="M17.917 15.8333C17.917 15.2808 18.1365 14.7509 18.5272 14.3602C18.9179 13.9695 19.4478 13.75 20.0003 13.75C20.5529 13.75 21.0828 13.9695 21.4735 14.3602C21.8642 14.7509 22.0837 15.2808 22.0837 15.8333C22.0837 16.3859 21.8642 16.9158 21.4735 17.3065C21.0828 17.6972 20.5529 17.9167 20.0003 17.9167C19.4478 17.9167 18.9179 17.6972 18.5272 17.3065C18.1365 16.9158 17.917 16.3859 17.917 15.8333Z" fill="#F8CB46"/>
<path d="M17.917 15.8333C17.917 15.2808 18.1365 14.7509 18.5272 14.3602C18.9179 13.9695 19.4478 13.75 20.0003 13.75C20.5529 13.75 21.0828 13.9695 21.4735 14.3602C21.8642 14.7509 22.0837 15.2808 22.0837 15.8333C22.0837 16.3859 21.8642 16.9158 21.4735 17.3065C21.0828 17.6972 20.5529 17.9167 20.0003 17.9167C19.4478 17.9167 18.9179 17.6972 18.5272 17.3065C18.1365 16.9158 17.917 16.3859 17.917 15.8333Z" fill="#5B2373"/>
</g>
<path opacity="0.5" d="M20.0833 22.0833C21.19 22.0833 22.145 22.0833 22.91 22.1867C23.73 22.2967 24.515 22.545 25.1517 23.1817C25.7883 23.8183 26.0367 24.6033 26.1467 25.4233C26.2433 26.14 26.25 27.0233 26.25 28.045V35.4167H13.75V28.25C13.75 27.1433 13.75 26.1883 13.8533 25.4233C13.9633 24.6033 14.2117 23.8183 14.8483 23.1817C15.485 22.545 16.2717 22.2967 17.09 22.1867C17.855 22.0833 18.81 22.0833 19.9183 22.0833H20.0833ZM26.6667 5H30.8333C31.0543 5 31.2663 5.0878 31.4226 5.24408C31.5789 5.40036 31.6667 5.61232 31.6667 5.83333V12.7333L25.8333 8.06667V5.83333C25.8333 5.61232 25.9211 5.40036 26.0774 5.24408C26.2337 5.0878 26.4457 5 26.6667 5Z" fill="black"/>
</svg>
