<svg width="17" height="18" viewBox="0 0 17 18" fill="none" xmlns="http://www.w3.org/2000/svg">
<path d="M6.90625 2.72727H10.0938C10.0938 2.29328 9.92584 1.87707 9.62695 1.57019C9.32807 1.26331 8.92269 1.09091 8.5 1.09091C8.07731 1.09091 7.67193 1.26331 7.37305 1.57019C7.07416 1.87707 6.90625 2.29328 6.90625 2.72727ZM5.84375 2.72727C5.84375 2.00396 6.1236 1.31026 6.62175 0.7988C7.11989 0.287337 7.79552 0 8.5 0C9.20448 0 9.88011 0.287337 10.3783 0.7988C10.8764 1.31026 11.1562 2.00396 11.1562 2.72727H16.4688C16.6096 2.72727 16.7448 2.78474 16.8444 2.88703C16.944 2.98933 17 3.12806 17 3.27273C17 3.41739 16.944 3.55613 16.8444 3.65842C16.7448 3.76071 16.6096 3.81818 16.4688 3.81818H15.3489L14.0802 15.1025C13.9906 15.9002 13.6184 16.6362 13.0346 17.1704C12.4508 17.7047 11.696 17.9999 10.914 18H6.086C5.30395 17.9999 4.54921 17.7047 3.9654 17.1704C3.38158 16.6362 3.00943 15.9002 2.91975 15.1025L1.65112 3.81818H0.53125C0.390354 3.81818 0.255228 3.76071 0.1556 3.65842C0.0559709 3.55613 0 3.41739 0 3.27273C0 3.12806 0.0559709 2.98933 0.1556 2.88703C0.255228 2.78474 0.390354 2.72727 0.53125 2.72727H5.84375ZM3.97481 14.9782C4.03476 15.5099 4.28299 16.0004 4.67226 16.3564C5.06153 16.7125 5.56468 16.9092 6.086 16.9091H10.914C11.4353 16.9092 11.9385 16.7125 12.3277 16.3564C12.717 16.0004 12.9652 15.5099 13.0252 14.9782L14.2789 3.81818H2.72106L3.97481 14.9782ZM6.90625 6.54545C7.04715 6.54545 7.18227 6.60292 7.2819 6.70521C7.38153 6.80751 7.4375 6.94625 7.4375 7.09091V13.6364C7.4375 13.781 7.38153 13.9198 7.2819 14.0221C7.18227 14.1244 7.04715 14.1818 6.90625 14.1818C6.76535 14.1818 6.63023 14.1244 6.5306 14.0221C6.43097 13.9198 6.375 13.781 6.375 13.6364V7.09091C6.375 6.94625 6.43097 6.80751 6.5306 6.70521C6.63023 6.60292 6.76535 6.54545 6.90625 6.54545ZM10.625 7.09091C10.625 6.94625 10.569 6.80751 10.4694 6.70521C10.3698 6.60292 10.2346 6.54545 10.0938 6.54545C9.95285 6.54545 9.81773 6.60292 9.7181 6.70521C9.61847 6.80751 9.5625 6.94625 9.5625 7.09091V13.6364C9.5625 13.781 9.61847 13.9198 9.7181 14.0221C9.81773 14.1244 9.95285 14.1818 10.0938 14.1818C10.2346 14.1818 10.3698 14.1244 10.4694 14.0221C10.569 13.9198 10.625 13.781 10.625 13.6364V7.09091Z" fill="#8E8E8E"/>
</svg>
