<svg width="40" height="38" viewBox="0 0 40 38" fill="none" xmlns="http://www.w3.org/2000/svg">
<path d="M26.5869 12.6963C26.5869 11.8679 27.2585 11.1963 28.0869 11.1963H38.0001C38.8285 11.1963 39.5001 11.8679 39.5001 12.6963V36.9357H26.5869V12.6963Z" fill="#F8CB46" stroke="black"/>
<path d="M0.5 12.6953C0.5 11.8669 1.17157 11.1953 2 11.1953H11.9132C12.7416 11.1953 13.4132 11.8669 13.4132 12.6953V36.9347H0.5V12.6953Z" fill="#F8CB46" stroke="black"/>
<path d="M10.9355 2C10.9355 1.17157 11.6071 0.5 12.4355 0.5H27.5662C28.3946 0.5 29.0662 1.17157 29.0662 2V36.9352H10.9355V2Z" fill="#F8CB46" stroke="black"/>
<rect x="13.9131" y="7.13086" width="5.21745" height="1.78263" fill="black"/>
<rect x="13.9131" y="12.4785" width="5.21745" height="1.78263" fill="black"/>
<rect x="13.9131" y="17.8262" width="5.21745" height="1.78263" fill="black"/>
<rect x="13.9131" y="23.1748" width="5.21745" height="1.78263" fill="black"/>
<rect x="20.8691" y="7.13086" width="5.21745" height="1.78263" fill="black"/>
<rect x="20.8691" y="12.4785" width="5.21745" height="1.78263" fill="black"/>
<rect x="20.8691" y="17.8262" width="5.21745" height="1.78263" fill="black"/>
<rect x="31.3047" y="17.8262" width="5.21745" height="1.78263" fill="black"/>
<rect x="31.3047" y="28.5215" width="5.21745" height="1.78263" fill="black"/>
<rect x="3.47852" y="17.8262" width="5.21745" height="1.78263" fill="black"/>
<rect x="3.47852" y="28.5215" width="5.21745" height="1.78263" fill="black"/>
<rect x="20.8691" y="23.1748" width="5.21745" height="1.78263" fill="black"/>
<rect x="31.3047" y="23.1738" width="5.21745" height="1.78263" fill="black"/>
<rect x="31.3047" y="33.8701" width="5.21745" height="1.78263" fill="black"/>
<rect x="3.47852" y="23.1748" width="5.21745" height="1.78263" fill="black"/>
<rect x="3.47852" y="33.8701" width="5.21745" height="1.78263" fill="black"/>
</svg>
