<svg width="23" height="23" viewBox="0 0 23 23" fill="none" xmlns="http://www.w3.org/2000/svg">
<path d="M21.7452 8.61594H17.8646L15.4497 3.46921C15.7079 3.06935 15.7816 2.55723 15.6042 2.07603C15.3048 1.2636 14.4037 0.847576 13.591 1.14695C12.7786 1.44632 12.3628 2.34748 12.6622 3.15992C12.8708 3.72657 13.3723 4.10009 13.9325 4.17285L16.0168 8.61571H7.08231L9.16688 4.17307C9.72706 4.10032 10.2285 3.72653 10.4372 3.15988C10.7365 2.34745 10.3205 1.44628 9.50808 1.14691C8.69564 0.847539 7.79425 1.26356 7.49488 2.076C7.31769 2.55696 7.39138 3.06908 7.64942 3.46917L5.23474 8.6159H1.25458C0.564321 8.61594 0 9.18052 0 9.87052V10.0796C0 10.7696 0.564321 11.3342 1.25458 11.3342H21.7452C22.4352 11.3342 23 10.7696 23 10.0796V9.87052C22.9998 9.18052 22.4352 8.61594 21.7452 8.61594Z" fill="white"/>
<path d="M21.7452 8.61594H17.8646L15.4497 3.46921C15.7079 3.06935 15.7816 2.55723 15.6042 2.07603C15.3048 1.2636 14.4037 0.847576 13.591 1.14695C12.7786 1.44632 12.3628 2.34748 12.6622 3.15992C12.8708 3.72657 13.3723 4.10009 13.9325 4.17285L16.0168 8.61571H7.08231L9.16688 4.17307C9.72706 4.10032 10.2285 3.72653 10.4372 3.15988C10.7365 2.34745 10.3205 1.44628 9.50808 1.14691C8.69564 0.847539 7.79425 1.26356 7.49488 2.076C7.31769 2.55696 7.39138 3.06908 7.64942 3.46917L5.23474 8.6159H1.25458C0.564321 8.61594 0 9.18052 0 9.87052V10.0796C0 10.7696 0.564321 11.3342 1.25458 11.3342H21.7452C22.4352 11.3342 23 10.7696 23 10.0796V9.87052C22.9998 9.18052 22.4352 8.61594 21.7452 8.61594Z" fill="white"/>
<path d="M4.18128 20.6955C4.32589 21.3707 4.74586 21.9501 5.43586 21.9501H17.563C18.253 21.9501 18.624 21.3626 18.8176 20.6955L20.6358 12.332H2.36328L4.18128 20.6955ZM15.6478 20.0462L16.9024 14.1394C16.9745 13.8006 17.3066 13.5841 17.6462 13.6562C17.9853 13.7283 18.2015 14.0611 18.1297 14.4L16.8751 20.3068C16.8125 20.6017 16.5522 20.8039 16.262 20.8039C16.2188 20.8039 16.1752 20.7993 16.1313 20.79C15.7922 20.7179 15.5759 20.3848 15.6478 20.0462ZM12.4995 20.1321L12.9176 14.2254C12.9418 13.8798 13.2407 13.6197 13.5875 13.644C13.9328 13.6685 14.1932 13.9683 14.1689 14.3139L13.7506 20.2206C13.7272 20.5512 13.4519 20.8034 13.1257 20.8034C13.1109 20.8034 13.0957 20.803 13.0807 20.802C12.7353 20.7775 12.475 20.4777 12.4995 20.1321ZM9.31718 13.6439C9.66 13.6192 9.96283 13.8798 9.98711 14.2253L10.4052 20.1321C10.4297 20.4777 10.1694 20.7775 9.82381 20.8022C9.80878 20.8032 9.79379 20.8036 9.77902 20.8036C9.45285 20.8036 9.17749 20.5511 9.15415 20.2208L8.7358 14.3141C8.71126 13.9682 8.97158 13.6684 9.31718 13.6439ZM5.2587 13.6559C5.59779 13.5839 5.93024 13.8003 6.00251 14.1392L7.25708 20.0459C7.32917 20.3848 7.1127 20.7179 6.77383 20.7897C6.72971 20.799 6.68581 20.8036 6.64286 20.8036C6.35295 20.8036 6.09259 20.6015 6.03002 20.3065L4.77544 14.3998C4.70313 14.0609 4.91956 13.728 5.2587 13.6559Z" fill="white"/>
<path d="M4.18128 20.6955C4.32589 21.3707 4.74586 21.9501 5.43586 21.9501H17.563C18.253 21.9501 18.624 21.3626 18.8176 20.6955L20.6358 12.332H2.36328L4.18128 20.6955ZM15.6478 20.0462L16.9024 14.1394C16.9745 13.8006 17.3066 13.5841 17.6462 13.6562C17.9853 13.7283 18.2015 14.0611 18.1297 14.4L16.8751 20.3068C16.8125 20.6017 16.5522 20.8039 16.262 20.8039C16.2188 20.8039 16.1752 20.7993 16.1313 20.79C15.7922 20.7179 15.5759 20.3848 15.6478 20.0462ZM12.4995 20.1321L12.9176 14.2254C12.9418 13.8798 13.2407 13.6197 13.5875 13.644C13.9328 13.6685 14.1932 13.9683 14.1689 14.3139L13.7506 20.2206C13.7272 20.5512 13.4519 20.8034 13.1257 20.8034C13.1109 20.8034 13.0957 20.803 13.0807 20.802C12.7353 20.7775 12.475 20.4777 12.4995 20.1321ZM9.31718 13.6439C9.66 13.6192 9.96283 13.8798 9.98711 14.2253L10.4052 20.1321C10.4297 20.4777 10.1694 20.7775 9.82381 20.8022C9.80878 20.8032 9.79379 20.8036 9.77902 20.8036C9.45285 20.8036 9.17749 20.5511 9.15415 20.2208L8.7358 14.3141C8.71126 13.9682 8.97158 13.6684 9.31718 13.6439ZM5.2587 13.6559C5.59779 13.5839 5.93024 13.8003 6.00251 14.1392L7.25708 20.0459C7.32917 20.3848 7.1127 20.7179 6.77383 20.7897C6.72971 20.799 6.68581 20.8036 6.64286 20.8036C6.35295 20.8036 6.09259 20.6015 6.03002 20.3065L4.77544 14.3998C4.70313 14.0609 4.91956 13.728 5.2587 13.6559Z" fill="white"/>
</svg>
