<svg width="40" height="61" viewBox="0 0 40 61" fill="none" xmlns="http://www.w3.org/2000/svg">
<path d="M32.1069 16.3676C34.0411 17.7216 34.1959 18.2632 34.1959 18.2632C34.1959 18.2632 34.312 17.7989 33.2288 15.2844C32.1455 12.7699 30.25 12.3057 30.25 12.3057C30.25 12.3057 30.1727 15.0136 32.1069 16.3676Z" fill="#54B226" stroke="#54B226"/>
<path d="M35.9766 16.0581C35.4795 16.4217 35.0396 17.0859 34.7316 17.6404C34.4492 18.1486 34.6894 18.7656 35.2166 19.0109C35.6462 19.2106 36.1504 19.1033 36.5019 18.7857C36.629 18.6709 36.7582 18.5641 36.8663 18.4953C37.7634 17.9238 39.4583 18.3792 39.729 18.3405C39.8215 18.3273 39.8823 18.251 39.9224 18.1562C40.037 17.8852 39.9777 17.6174 39.8608 17.3474C39.799 17.2044 39.6928 17.034 39.6111 16.9013C39.3245 16.436 38.5535 15.3222 37.7174 15.2844C36.9742 15.2507 36.577 15.6188 35.9766 16.0581Z" fill="#54B226"/>
<circle cx="32.3792" cy="25.0325" r="7.07939" fill="#F3445A"/>
<path d="M22.0232 8.88606C24.4889 10.6122 24.6862 11.3026 24.6862 11.3026C24.6862 11.3026 24.8343 10.7107 23.4533 7.5052C22.0724 4.29968 19.656 3.70784 19.656 3.70784C19.656 3.70784 19.5574 7.15996 22.0232 8.88606Z" fill="#54B226" stroke="#54B226"/>
<path d="M28.4322 8.14057C25.0345 10.5191 24.7626 11.4704 24.7626 11.4704C24.7626 11.4704 24.5586 10.6549 26.4615 6.23779C28.3643 1.82068 31.6941 1.00516 31.6941 1.00516C31.6941 1.00516 31.8299 5.76205 28.4322 8.14057Z" fill="#54B226" stroke="#54B226"/>
<path d="M18.2641 16.7166C18.3942 13.3665 21.3832 10.8579 24.705 11.3107C28.169 11.7829 30.3876 15.2433 29.3709 18.5882L25.1414 32.5035C24.5983 34.2906 22.8382 35.419 20.9875 35.1668C19.0465 34.9022 17.6237 33.207 17.6997 31.2495L18.2641 16.7166Z" fill="#FE9901"/>
<rect x="0.619141" y="5.3418" width="17.2536" height="30.7934" rx="8.6268" fill="#F5BC00"/>
<path d="M5.91884 25.2649L5.10161 26.0822C4.46333 26.7204 3.42845 26.7204 2.79017 26.0822C1.76052 25.0525 0 25.7818 0 27.2379V54.1977C0 57.5114 2.6863 60.1977 6.00001 60.1977H33.4589C36.7726 60.1977 39.4589 57.5114 39.4589 54.1977V27.2379C39.4589 25.7818 37.6984 25.0525 36.6687 26.0822C36.0304 26.7204 34.9956 26.7204 34.3573 26.0822L33.5401 25.2649C32.4504 24.1753 30.6838 24.1753 29.5942 25.2649C28.5045 26.3546 26.7379 26.3546 25.6483 25.2649C24.5587 24.1753 22.792 24.1753 21.7024 25.2649C20.6128 26.3546 18.8461 26.3546 17.7565 25.2649C16.6669 24.1753 14.9002 24.1753 13.8106 25.2649C12.721 26.3546 10.9544 26.3546 9.86473 25.2649C8.7751 24.1753 7.00846 24.1753 5.91884 25.2649Z" fill="#F6A96C"/>
<ellipse cx="9.28423" cy="14.8587" rx="5.80278" ry="0.773704" fill="#FE9901"/>
<ellipse cx="9.28423" cy="20.7385" rx="5.80278" ry="0.773704" fill="#FE9901"/>
<line x1="20.0847" y1="16.5472" x2="27.5394" y2="17.9324" stroke="black" stroke-width="0.5"/>
<line x1="21.0179" y1="20.1068" x2="26.5383" y2="21.2599" stroke="black" stroke-width="0.5"/>
<line x1="23.0258" y1="22.81" x2="27.1265" y2="23.5837" stroke="black" stroke-width="0.5"/>
</svg>
