<svg width="23" height="19" viewBox="0 0 23 19" fill="none" xmlns="http://www.w3.org/2000/svg">
<path d="M22.9541 11.2158C22.8142 10.8352 22.3915 10.6405 22.0119 10.7807L12.4304 14.3072C11.8328 13.4318 10.7981 12.9516 9.74453 13.0592L5.31343 1.02039L0.896224 0.0184513C0.502378 -0.0715546 0.107818 0.176478 0.0183008 0.571753C-0.0712166 0.967027 0.176328 1.36038 0.571602 1.4499L4.21145 2.2757L8.36938 13.5726C7.31949 14.3104 6.85033 15.6844 7.31486 16.9453C7.86843 18.449 9.53596 19.2197 11.0398 18.6662C12.2966 18.2034 13.0378 16.962 12.9253 15.689L22.519 12.1583C22.8991 12.0179 23.094 11.5962 22.9541 11.2158ZM10.5755 17.405C9.76828 17.7024 8.87277 17.2883 8.57558 16.4813C8.27862 15.6736 8.69201 14.7786 9.49947 14.4811C10.3067 14.1839 11.2025 14.5978 11.4997 15.4048C11.7969 16.2123 11.3828 17.1075 10.5755 17.405Z" fill="#54B226"/>
<path d="M20.9968 9.04373L17.9211 0.686523L14.0919 2.09599L14.9383 4.3951L13.395 4.96283L12.5489 2.66398L8.71973 4.07319L11.7955 12.4304L20.9968 9.04373ZM18.8836 7.50634L19.2214 8.42462L15.8028 9.6829L15.4649 8.76462L18.8836 7.50634Z" fill="#54B226"/>
</svg>
