<svg width="30" height="27" viewBox="0 0 30 27" fill="none" xmlns="http://www.w3.org/2000/svg">
<path d="M29.8858 5.6133C29.8359 5.54709 29.7715 5.4934 29.6977 5.4564C29.6238 5.4194 29.5425 5.4001 29.46 5.4H5.64427L4.265 0.39555C4.23371 0.281905 4.16637 0.181714 4.07327 0.110287C3.98018 0.0388601 3.86644 0.000124786 3.74945 0H0.535636C0.393577 0 0.257336 0.0568928 0.156884 0.158162C0.0564329 0.259432 0 0.396783 0 0.54C0 0.683217 0.0564329 0.820568 0.156884 0.921838C0.257336 1.02311 0.393577 1.08 0.535636 1.08H3.34773L8.15372 18.5423C8.31151 19.1102 8.64893 19.6108 9.11469 19.9677C9.58045 20.3247 10.1491 20.5186 10.7342 20.52H23.9697C24.5548 20.5186 25.1234 20.3247 25.5892 19.9677C26.0549 19.6108 26.3924 19.1102 26.5502 18.5423L29.9822 6.08445C30.0034 6.00375 30.0057 5.9192 29.989 5.83745C29.9722 5.7557 29.9369 5.67898 29.8858 5.6133ZM25.511 18.2534C25.4174 18.5934 25.2162 18.8933 24.938 19.1075C24.6598 19.3217 24.3198 19.4384 23.9697 19.44H10.7342C10.383 19.4399 10.0415 19.3239 9.76189 19.1095C9.48233 18.8952 9.28011 18.5945 9.18616 18.2534L5.94155 6.48H28.7556L25.511 18.2534ZM11.784 25.38C11.784 25.7004 11.6898 26.0136 11.5132 26.28C11.3366 26.5464 11.0857 26.7541 10.792 26.8767C10.4984 26.9993 10.1753 27.0314 9.8636 26.9689C9.55189 26.9064 9.26556 26.7521 9.04083 26.5255C8.8161 26.299 8.66306 26.0103 8.60106 25.696C8.53905 25.3818 8.57088 25.0561 8.6925 24.7601C8.81412 24.464 9.02008 24.211 9.28434 24.033C9.54859 23.855 9.85927 23.76 10.1771 23.76C10.6033 23.76 11.012 23.9307 11.3133 24.2345C11.6147 24.5383 11.784 24.9503 11.784 25.38ZM25.7105 25.38C25.7105 25.7004 25.6163 26.0136 25.4397 26.28C25.2632 26.5464 25.0122 26.7541 24.7186 26.8767C24.4249 26.9993 24.1019 27.0314 23.7901 26.9689C23.4784 26.9064 23.1921 26.7521 22.9674 26.5255C22.7426 26.299 22.5896 26.0103 22.5276 25.696C22.4656 25.3818 22.4974 25.0561 22.619 24.7601C22.7407 24.464 22.9466 24.211 23.2109 24.033C23.4751 23.855 23.7858 23.76 24.1036 23.76C24.5298 23.76 24.9385 23.9307 25.2399 24.2345C25.5412 24.5383 25.7105 24.9503 25.7105 25.38Z" fill="#343434"/>
</svg>
