<svg width="28" height="24" viewBox="0 0 28 24" fill="none" xmlns="http://www.w3.org/2000/svg">
<path d="M20.0679 0C17.3448 0 14.9976 1.29425 13.7173 3.43822C12.437 1.29425 10.0899 0 7.36671 0C5.41366 0.00235287 3.54127 0.779242 2.16026 2.16026C0.779242 3.54127 0.00235287 5.41366 0 7.36671C0 10.998 2.28622 14.7931 6.78245 18.6441C8.85857 20.4106 11.1001 21.9729 13.476 23.3093C13.5501 23.3493 13.6331 23.3703 13.7173 23.3703C13.8016 23.3703 13.8845 23.3493 13.9586 23.3093C16.3345 21.9729 18.5761 20.4106 20.6522 18.6441C25.1484 14.7931 27.4346 10.998 27.4346 7.36671C27.4323 5.41366 26.6554 3.54127 25.2744 2.16026C23.8934 0.779242 22.021 0.00235287 20.0679 0ZM13.7173 22.2805C11.9391 21.2644 1.0161 14.7423 1.0161 7.36671C1.01811 5.68304 1.68784 4.06891 2.87838 2.87838C4.06891 1.68784 5.68304 1.01811 7.36671 1.0161C10.0479 1.0161 12.3011 2.45261 13.2474 4.76423C13.2857 4.85741 13.3508 4.93711 13.4344 4.9932C13.5181 5.04929 13.6166 5.07924 13.7173 5.07924C13.8181 5.07924 13.9165 5.04929 14.0002 4.9932C14.0839 4.93711 14.149 4.85741 14.1873 4.76423C15.1335 2.45261 17.3867 1.0161 20.0679 1.0161C21.7516 1.01811 23.3657 1.68784 24.5563 2.87838C25.7468 4.06891 26.4165 5.68304 26.4185 7.36671C26.4185 14.7334 15.4955 21.2695 13.7173 22.2805Z" fill="#343434"/>
</svg>
