<svg width="26" height="22" viewBox="0 0 26 22" fill="none" xmlns="http://www.w3.org/2000/svg">
<path d="M6.46753 20.6817C6.46753 20.6817 15.5 22.5 16 19.5C16.5 16.5 9.5 12 12.5 10.5C15.5 9.00001 21.2654 11.5829 21.3104 11.7086" stroke="#7F7F7F" stroke-width="0.413793"/>
<path d="M1 13.5861L5.75862 16.0689L8.24138 14.8275M1 13.5861L3.37931 12.1379M1 13.5861V18.7585L5.75862 21.2413L10.7241 18.5516V13.5861M10.7241 13.5861L5.75862 10.6896L3.37931 12.1379M10.7241 13.5861L8.24138 14.8275M3.37931 12.1379L8.24138 14.8275" stroke="black" stroke-width="0.7"/>
<path d="M5.7583 16.0689V21.307M8.03416 14.8275V16.4827" stroke="black" stroke-width="0.7"/>
<path d="M21.3103 6.2069L21.3105 6.2069C21.8065 6.20634 22.2805 6.00195 22.629 5.64106C22.9772 5.28042 23.1718 4.79294 23.1724 4.28593V4.28571C23.1724 3.90732 23.0641 3.53687 22.8604 3.22115C22.6566 2.90535 22.3663 2.6581 22.0253 2.51178C21.6841 2.36543 21.3083 2.32701 20.9456 2.40173C20.583 2.47643 20.251 2.66062 19.9911 2.92982C19.7312 3.19894 19.5551 3.54096 19.4837 3.91225C19.4124 4.28352 19.449 4.66842 19.589 5.01857C19.7291 5.36878 19.9667 5.66926 20.273 5.88122C20.5794 6.09324 20.9404 6.2069 21.3103 6.2069ZM21.3103 11.6809C21.3041 11.6735 21.2978 11.6659 21.2914 11.6582C21.1794 11.524 21.0191 11.3282 20.8267 11.0823C20.4415 10.5903 19.9282 9.89916 19.4153 9.1023C18.9021 8.30493 18.3914 7.40521 18.0097 6.49581C17.6271 5.58441 17.3793 4.67577 17.3793 3.85714C17.3793 1.85566 19.1262 0.206897 21.3103 0.206897C23.4944 0.206897 25.2413 1.85566 25.2413 3.85714C25.2413 4.67577 24.9935 5.58441 24.6109 6.49581C24.2291 7.40521 23.7185 8.30493 23.2053 9.1023C22.6924 9.89916 22.1791 10.5903 21.7939 11.0823C21.6014 11.3282 21.4412 11.524 21.3292 11.6582C21.3228 11.6659 21.3164 11.6735 21.3103 11.6809Z" fill="#343434" stroke="#343434" stroke-width="0.413793"/>
</svg>
