<svg width="26" height="24" viewBox="0 0 26 24" fill="none" xmlns="http://www.w3.org/2000/svg">
<path d="M24.9725 22.64C22.9033 19.1639 19.5866 16.7905 15.7438 15.9349C17.5699 15.2079 19.0794 13.8874 20.0147 12.1989C20.9499 10.5104 21.2528 8.55878 20.8716 6.67739C20.4903 4.79599 19.4486 3.10161 17.9244 1.88372C16.4002 0.665823 14.4881 0 12.5148 0C10.5415 0 8.62937 0.665823 7.10517 1.88372C5.58097 3.10161 4.53927 4.79599 4.15802 6.67739C3.77678 8.55878 4.07965 10.5104 5.0149 12.1989C5.95015 13.8874 7.45974 15.2079 9.28576 15.9349C5.44799 16.7869 2.12626 19.1639 0.0570744 22.64C-0.00282356 22.7512 -0.0161639 22.8807 0.0198403 23.0013C0.0558444 23.1219 0.138408 23.2243 0.250285 23.2871C0.362163 23.35 0.4947 23.3684 0.620212 23.3385C0.745725 23.3086 0.854504 23.2328 0.923829 23.1268C3.37129 19.0118 7.70757 16.5544 12.5148 16.5544C17.322 16.5544 21.6583 19.0118 24.1058 23.1268C24.1497 23.2008 24.2129 23.2622 24.2889 23.3049C24.365 23.3476 24.4513 23.3702 24.5391 23.3703C24.6272 23.3705 24.7137 23.3478 24.7897 23.3045C24.9045 23.2399 24.9883 23.1336 25.0226 23.009C25.0568 22.8844 25.0388 22.7517 24.9725 22.64ZM4.99958 8.27804C4.99958 6.83371 5.44034 5.42181 6.26613 4.22089C7.09191 3.01997 8.26562 2.08396 9.63885 1.53124C11.0121 0.978519 12.5231 0.833901 13.9809 1.11568C15.4388 1.39745 16.7778 2.09297 17.8289 3.11426C18.8799 4.13556 19.5956 5.43678 19.8856 6.85336C20.1756 8.26994 20.0268 9.73827 19.458 11.0727C18.8891 12.407 17.9259 13.5476 16.69 14.35C15.4542 15.1524 14.0012 15.5807 12.5148 15.5807C10.5224 15.5785 8.61218 14.8084 7.2033 13.4393C5.79443 12.0703 5.0019 10.2141 4.99958 8.27804Z" fill="#343434"/>
</svg>
