<svg width="25" height="25" viewBox="0 0 25 25" fill="none" xmlns="http://www.w3.org/2000/svg">
<path d="M24.3705 24.3705L18.7318 18.7318M18.7318 18.7318C19.6963 17.7673 20.4614 16.6222 20.9834 15.362C21.5054 14.1018 21.7741 12.7511 21.7741 11.387C21.7741 10.023 21.5054 8.67231 20.9834 7.4121C20.4614 6.15188 19.6963 5.00682 18.7318 4.0423C17.7673 3.07777 16.6222 2.31267 15.362 1.79067C14.1018 1.26867 12.7511 1 11.387 1C10.023 1 8.67231 1.26867 7.4121 1.79067C6.15188 2.31267 5.00682 3.07777 4.0423 4.0423C2.09435 5.99025 1 8.63223 1 11.387C1 14.1419 2.09435 16.7839 4.0423 18.7318C5.99025 20.6797 8.63223 21.7741 11.387 21.7741C14.1419 21.7741 16.7839 20.6797 18.7318 18.7318Z" stroke="#343434" stroke-linecap="round" stroke-linejoin="round"/>
</svg>
